<svg id="svg" xmlns="http://www.w3.org/2000/svg" xmlns:xlink="http://www.w3.org/1999/xlink" width="400" height="400" viewBox="0, 0, 400,400" version="1.1"><g id="svgg"><path id="path0" d="M148.712 66.219 C 148.650 66.278,147.250 66.438,145.600 66.573 C 141.712 66.891,140.000 67.210,140.000 67.615 C 140.000 67.795,139.454 67.873,138.787 67.788 C 138.120 67.704,137.663 67.778,137.771 67.952 C 137.879 68.127,137.238 68.299,136.348 68.334 C 135.457 68.368,134.555 68.504,134.343 68.635 C 134.131 68.766,133.202 68.953,132.279 69.049 C 131.355 69.146,130.150 69.381,129.600 69.571 C 129.050 69.761,127.520 70.136,126.200 70.404 C 124.880 70.672,123.440 71.088,123.000 71.327 C 122.560 71.567,122.020 71.782,121.800 71.804 C 121.580 71.827,121.130 71.955,120.800 72.089 C 120.470 72.223,118.055 72.970,115.433 73.751 C 112.811 74.531,110.537 75.379,110.378 75.636 C 110.219 75.892,109.905 75.988,109.679 75.849 C 109.453 75.709,109.208 75.742,109.134 75.921 C 109.060 76.100,107.290 76.852,105.200 77.590 C 103.110 78.329,101.078 79.264,100.684 79.667 C 100.291 80.070,99.707 80.400,99.388 80.400 C 98.448 80.400,93.046 82.878,92.483 83.567 C 92.198 83.915,91.876 84.140,91.766 84.066 C 91.425 83.837,84.800 87.216,84.800 87.619 C 84.800 87.829,84.665 87.962,84.500 87.916 C 84.099 87.804,78.127 91.131,77.369 91.888 C 77.041 92.217,75.912 92.961,74.861 93.543 C 70.862 95.756,64.830 100.563,65.372 101.105 C 65.461 101.194,65.188 101.612,64.767 102.033 C 64.345 102.455,64.000 103.070,64.000 103.400 C 64.000 103.730,63.822 104.000,63.604 104.000 C 63.387 104.000,62.471 105.395,61.569 107.100 C 60.666 108.805,59.346 111.280,58.634 112.600 C 57.922 113.920,57.014 115.855,56.616 116.900 C 56.217 117.945,55.736 118.800,55.546 118.800 C 55.356 118.800,55.200 119.160,55.200 119.600 C 55.200 120.040,55.049 120.400,54.864 120.400 C 54.679 120.400,54.283 121.165,53.984 122.100 C 53.685 123.035,53.016 124.488,52.497 125.329 C 51.978 126.170,51.624 127.070,51.712 127.329 C 51.799 127.588,51.646 127.980,51.373 128.200 C 50.879 128.597,49.150 132.516,48.284 135.200 C 48.035 135.970,47.702 136.693,47.543 136.807 C 47.241 137.023,45.453 141.597,44.731 144.000 C 44.500 144.770,44.156 145.498,43.966 145.617 C 43.776 145.737,43.565 146.187,43.499 146.617 C 43.432 147.048,43.236 147.625,43.065 147.900 C 42.893 148.175,42.864 148.580,43.000 148.800 C 43.136 149.020,43.091 149.200,42.899 149.200 C 42.614 149.200,41.057 153.545,41.013 154.467 C 41.006 154.613,40.865 154.868,40.700 155.033 C 40.535 155.198,40.400 155.648,40.400 156.033 C 40.400 156.418,40.225 156.793,40.012 156.867 C 39.798 156.940,39.568 157.360,39.500 157.800 C 39.432 158.240,39.269 158.780,39.137 159.000 C 38.797 159.568,37.480 164.180,37.055 166.288 C 37.001 166.557,36.831 166.902,36.678 167.055 C 36.525 167.208,36.400 167.753,36.400 168.267 C 36.400 168.780,36.241 169.200,36.047 169.200 C 35.852 169.200,35.592 169.605,35.469 170.100 C 35.345 170.595,34.859 172.440,34.387 174.200 C 33.915 175.960,33.274 178.480,32.962 179.800 C 32.649 181.120,32.215 182.513,31.997 182.895 C 31.464 183.828,31.497 184.107,32.100 183.755 C 32.375 183.594,32.273 183.836,31.874 184.292 C 31.473 184.749,31.114 185.839,31.074 186.721 C 31.033 187.601,30.897 188.258,30.771 188.181 C 30.581 188.064,29.621 191.798,29.018 195.000 C 28.935 195.440,28.653 196.610,28.392 197.600 C 28.131 198.590,27.891 199.805,27.859 200.300 C 27.826 200.795,27.665 201.200,27.500 201.200 C 27.335 201.200,27.229 201.335,27.264 201.500 C 27.298 201.665,27.221 202.070,27.091 202.400 C 26.962 202.730,26.560 204.710,26.198 206.800 C 25.836 208.890,25.473 210.960,25.392 211.400 C 24.897 214.070,23.925 219.494,23.851 220.007 C 23.802 220.341,23.653 220.791,23.520 221.007 C 23.313 221.345,22.906 223.743,21.758 231.400 C 21.462 233.379,20.050 243.693,19.814 245.600 C 19.719 246.370,19.457 247.857,19.232 248.904 C 19.007 249.951,18.738 252.021,18.634 253.504 C 18.530 254.987,18.246 258.180,18.002 260.600 C 17.222 268.339,16.417 279.309,16.406 282.346 C 16.399 284.235,15.889 283.561,22.765 290.743 C 24.104 292.141,25.200 293.162,25.200 293.012 C 25.200 292.862,25.666 293.293,26.236 293.970 C 26.807 294.648,27.424 295.109,27.608 294.995 C 27.792 294.881,28.045 295.112,28.171 295.508 C 28.375 296.151,32.762 300.075,34.957 301.577 C 35.420 301.895,36.542 302.743,37.449 303.462 C 38.355 304.181,39.210 304.656,39.349 304.518 C 39.487 304.380,39.600 304.458,39.600 304.692 C 39.600 304.925,40.545 305.711,41.700 306.438 C 42.855 307.165,44.340 308.202,45.000 308.742 C 45.660 309.282,47.082 310.134,48.159 310.635 C 49.237 311.135,50.227 311.717,50.359 311.926 C 50.492 312.136,52.220 313.137,54.200 314.150 C 56.180 315.163,58.250 316.261,58.800 316.589 C 59.350 316.918,61.060 317.733,62.600 318.402 C 64.140 319.071,65.850 319.866,66.400 320.168 C 67.886 320.986,75.011 323.600,75.755 323.600 C 76.110 323.600,76.400 323.801,76.400 324.047 C 76.400 324.296,76.753 324.401,77.201 324.284 C 77.641 324.169,77.908 324.225,77.795 324.409 C 77.533 324.833,79.058 325.335,79.596 325.002 C 79.818 324.865,80.000 324.913,80.000 325.108 C 80.000 325.303,81.845 325.962,84.100 326.571 C 86.355 327.181,88.480 327.821,88.822 327.994 C 90.102 328.642,100.836 331.010,104.400 331.430 C 105.610 331.573,106.780 331.834,107.001 332.011 C 107.221 332.188,108.403 332.407,109.628 332.498 C 110.852 332.589,112.022 332.765,112.227 332.889 C 112.432 333.014,114.400 333.232,116.600 333.373 C 118.800 333.515,121.707 333.719,123.061 333.826 C 125.497 334.020,125.529 334.009,126.343 332.693 C 126.794 331.962,127.553 330.922,128.028 330.382 C 128.503 329.842,129.186 328.950,129.546 328.401 C 130.130 327.508,135.073 320.845,135.943 319.777 C 139.971 314.835,139.971 314.846,135.700 313.425 C 133.775 312.784,132.003 312.113,131.763 311.934 C 131.523 311.754,131.208 311.725,131.063 311.870 C 130.918 312.015,130.800 311.937,130.800 311.698 C 130.800 311.458,130.125 311.047,129.300 310.784 C 128.475 310.521,127.260 310.068,126.600 309.778 C 125.271 309.193,122.821 308.198,122.200 307.991 C 121.980 307.917,121.560 307.618,121.268 307.325 C 120.975 307.032,120.585 306.885,120.402 306.999 C 120.218 307.112,120.008 307.058,119.934 306.878 C 119.860 306.698,118.630 305.988,117.200 305.299 C 115.770 304.611,114.150 303.768,113.600 303.425 C 113.050 303.082,112.150 302.621,111.600 302.400 C 111.050 302.180,109.520 301.283,108.200 300.408 C 106.880 299.533,105.350 298.582,104.800 298.293 C 104.250 298.005,103.080 297.326,102.200 296.785 C 101.320 296.244,100.420 295.861,100.200 295.934 C 99.980 296.007,99.936 295.931,100.102 295.765 C 100.408 295.458,96.135 292.404,95.396 292.401 C 95.174 292.401,94.769 292.042,94.496 291.605 C 94.223 291.167,93.308 290.373,92.463 289.840 C 91.619 289.307,90.674 288.627,90.364 288.330 C 90.054 288.032,88.995 287.161,88.011 286.394 C 87.027 285.627,84.966 283.887,83.430 282.526 C 81.895 281.165,80.495 280.141,80.320 280.250 C 80.144 280.358,80.000 280.230,80.000 279.965 C 80.000 279.423,72.778 272.199,71.939 271.901 C 71.642 271.796,71.528 271.571,71.685 271.403 C 71.842 271.234,72.562 271.581,73.285 272.175 C 75.170 273.721,81.834 278.000,82.358 278.000 C 82.601 278.000,82.800 278.168,82.800 278.373 C 82.800 278.578,83.160 278.860,83.600 279.000 C 84.040 279.140,85.318 279.872,86.440 280.627 C 87.562 281.382,88.717 282.000,89.007 282.000 C 89.296 282.000,89.593 282.135,89.667 282.300 C 89.740 282.465,90.610 283.032,91.600 283.560 C 96.649 286.254,97.507 286.687,98.800 287.192 C 99.570 287.493,100.650 288.034,101.200 288.393 C 101.750 288.752,103.460 289.554,105.000 290.174 C 106.540 290.794,108.663 291.734,109.717 292.263 C 110.772 292.793,111.791 293.129,111.983 293.010 C 112.175 292.892,112.392 292.940,112.466 293.117 C 112.540 293.294,114.040 293.943,115.800 294.561 C 117.560 295.178,119.796 296.040,120.769 296.476 C 121.743 296.912,122.913 297.319,123.369 297.381 C 123.826 297.442,124.673 297.683,125.250 297.917 C 126.550 298.443,128.951 299.088,130.790 299.404 C 131.554 299.535,132.274 299.777,132.390 299.941 C 132.721 300.411,135.973 301.264,136.408 300.995 C 136.624 300.862,136.800 300.905,136.800 301.091 C 136.800 301.277,137.115 301.449,137.500 301.475 C 137.885 301.500,139.640 301.897,141.400 302.356 C 143.160 302.814,145.500 303.306,146.600 303.448 C 147.700 303.590,148.790 303.856,149.022 304.038 C 149.255 304.220,150.200 304.421,151.122 304.485 C 152.044 304.548,152.799 304.738,152.799 304.906 C 152.800 305.075,153.295 305.206,153.900 305.198 C 154.505 305.191,156.710 305.453,158.800 305.783 C 160.890 306.112,165.840 306.666,169.800 307.014 C 173.760 307.362,177.540 307.811,178.200 308.012 C 181.948 309.153,217.994 309.149,221.800 308.007 C 222.460 307.809,226.240 307.362,230.200 307.014 C 234.160 306.666,239.110 306.112,241.200 305.782 C 243.290 305.453,245.360 305.180,245.800 305.176 C 246.240 305.172,247.455 304.915,248.500 304.606 C 249.545 304.296,250.400 304.145,250.400 304.271 C 250.400 304.396,250.625 304.320,250.900 304.102 C 251.175 303.885,252.324 303.589,253.454 303.446 C 254.584 303.302,256.834 302.852,258.454 302.446 C 260.074 302.040,262.437 301.490,263.705 301.224 C 264.973 300.958,265.923 300.599,265.816 300.426 C 265.710 300.254,266.067 300.161,266.611 300.221 C 267.155 300.281,267.600 300.198,267.600 300.038 C 267.600 299.878,268.770 299.514,270.200 299.230 C 271.630 298.946,272.800 298.542,272.800 298.333 C 272.800 298.124,272.965 298.055,273.166 298.179 C 273.368 298.304,274.043 298.196,274.666 297.939 C 275.290 297.682,276.043 297.513,276.340 297.563 C 276.637 297.613,276.763 297.464,276.619 297.231 C 276.469 296.988,276.588 296.897,276.900 297.017 C 277.519 297.254,280.216 296.221,280.600 295.600 C 280.741 295.373,280.999 295.276,281.175 295.385 C 281.544 295.612,287.248 293.613,290.200 292.222 C 291.300 291.703,293.509 290.776,295.108 290.162 C 296.708 289.547,298.365 288.719,298.791 288.322 C 299.218 287.925,299.799 287.595,300.083 287.589 C 300.971 287.571,309.280 283.270,309.534 282.698 C 309.608 282.531,309.833 282.497,310.034 282.621 C 310.235 282.745,310.400 282.657,310.400 282.424 C 310.400 282.191,310.652 282.000,310.960 282.000 C 311.268 282.000,312.438 281.382,313.560 280.627 C 314.682 279.872,315.960 279.140,316.400 279.000 C 316.840 278.860,317.200 278.578,317.200 278.373 C 317.200 278.168,317.425 277.997,317.700 277.993 C 317.975 277.989,319.460 277.088,321.000 275.991 C 322.540 274.894,324.344 273.742,325.008 273.431 C 325.673 273.120,326.555 272.491,326.970 272.033 C 327.783 271.135,328.400 270.952,328.400 271.610 C 328.400 271.835,327.995 272.179,327.500 272.373 C 326.638 272.712,324.938 274.400,325.459 274.400 C 325.597 274.400,325.085 274.897,324.321 275.504 C 321.784 277.520,320.444 278.948,320.688 279.376 C 320.820 279.609,320.793 279.678,320.627 279.530 C 320.327 279.260,320.000 279.512,315.432 283.550 C 314.095 284.733,312.370 286.173,311.600 286.750 C 310.830 287.328,309.660 288.294,309.000 288.898 C 308.340 289.502,307.591 289.997,307.336 289.998 C 307.080 289.999,306.435 290.518,305.902 291.152 C 305.369 291.786,304.574 292.418,304.137 292.557 C 303.699 292.696,302.994 293.122,302.571 293.505 C 302.147 293.887,301.311 294.452,300.714 294.760 C 300.116 295.068,299.725 295.478,299.843 295.670 C 299.962 295.862,299.911 295.971,299.730 295.911 C 299.548 295.851,298.680 296.241,297.800 296.779 C 296.920 297.317,295.840 297.966,295.400 298.222 C 294.960 298.478,293.347 299.457,291.816 300.399 C 290.284 301.341,288.439 302.359,287.716 302.661 C 286.992 302.963,286.400 303.388,286.400 303.605 C 286.400 303.822,286.265 303.972,286.100 303.938 C 285.644 303.844,278.635 307.227,278.355 307.676 C 278.221 307.892,277.999 308.061,277.863 308.052 C 277.610 308.034,275.566 308.825,273.400 309.778 C 272.740 310.068,271.525 310.521,270.700 310.784 C 269.875 311.047,269.200 311.428,269.200 311.631 C 269.200 311.834,269.065 311.971,268.900 311.936 C 268.735 311.902,268.240 312.009,267.800 312.174 C 267.360 312.340,266.010 312.835,264.800 313.273 C 260.078 314.984,260.247 314.757,261.993 317.040 C 266.013 322.298,269.623 327.141,270.723 328.751 C 271.230 329.495,271.888 330.345,272.184 330.641 C 272.480 330.937,273.114 331.813,273.593 332.589 L 274.465 334.000 277.532 333.794 C 284.280 333.341,286.324 333.157,289.200 332.741 C 290.850 332.502,292.560 332.154,293.000 331.967 C 293.440 331.780,295.240 331.438,297.000 331.207 C 298.760 330.977,300.740 330.626,301.400 330.428 C 302.060 330.230,303.815 329.853,305.300 329.589 C 306.785 329.325,308.000 328.989,308.000 328.842 C 308.000 328.695,308.495 328.537,309.100 328.491 C 309.705 328.446,310.560 328.247,311.000 328.050 C 311.440 327.854,313.638 327.193,315.884 326.582 C 318.130 325.972,319.885 325.337,319.783 325.173 C 319.682 325.009,319.930 324.961,320.334 325.067 C 320.739 325.173,321.735 324.886,322.547 324.430 C 323.360 323.973,324.258 323.600,324.543 323.600 C 324.829 323.600,326.128 323.179,327.431 322.665 C 328.734 322.151,330.656 321.416,331.703 321.031 C 332.749 320.647,333.526 320.205,333.430 320.049 C 333.334 319.893,333.568 319.742,333.951 319.714 C 334.711 319.656,339.601 317.546,341.200 316.585 C 341.750 316.255,343.676 315.236,345.480 314.321 C 347.284 313.406,348.651 312.482,348.518 312.267 C 348.376 312.038,348.486 312.006,348.783 312.189 C 349.062 312.362,349.404 312.323,349.545 312.104 C 349.685 311.884,350.700 311.249,351.800 310.693 C 352.900 310.136,354.500 309.123,355.355 308.440 C 356.210 307.758,357.076 307.200,357.279 307.200 C 357.481 307.200,357.518 306.975,357.359 306.700 C 357.201 306.425,357.221 306.336,357.404 306.501 C 357.694 306.765,358.885 306.180,360.190 305.135 C 362.353 303.403,364.827 301.600,365.044 301.600 C 365.190 301.600,366.063 300.925,366.983 300.100 C 367.903 299.275,369.986 297.430,371.613 296.000 C 374.277 293.658,376.013 291.964,381.344 286.503 C 382.255 285.570,382.820 284.800,382.600 284.791 C 382.380 284.783,382.537 284.580,382.949 284.341 C 383.929 283.771,383.635 277.117,381.810 258.600 C 381.484 255.300,381.154 251.880,381.076 251.000 C 380.771 247.578,380.323 244.565,380.005 243.800 C 379.822 243.360,379.378 240.480,379.019 237.400 C 378.450 232.531,377.494 225.982,376.565 220.600 C 376.413 219.720,376.157 218.820,375.995 218.600 C 375.833 218.380,375.489 216.670,375.231 214.800 C 374.972 212.930,374.595 210.860,374.393 210.200 C 374.034 209.025,373.930 208.458,373.406 204.800 C 373.264 203.810,372.822 201.920,372.422 200.600 C 371.630 197.981,371.215 196.344,370.952 194.800 C 370.787 193.830,370.296 191.695,368.951 186.100 C 368.594 184.615,368.164 183.220,367.994 183.000 C 367.825 182.780,367.467 181.520,367.199 180.200 C 366.930 178.880,366.558 177.510,366.371 177.155 C 366.184 176.800,365.930 175.900,365.806 175.155 C 365.520 173.430,364.325 169.463,364.012 169.200 C 363.881 169.090,363.530 168.010,363.231 166.800 C 362.933 165.590,362.506 164.150,362.283 163.600 C 362.060 163.050,361.812 162.240,361.732 161.800 C 361.448 160.243,360.277 156.997,359.914 156.760 C 359.712 156.628,359.483 156.178,359.404 155.760 C 359.325 155.342,359.234 155.000,359.200 155.000 C 359.166 155.000,359.084 154.730,359.016 154.400 C 358.739 153.050,356.234 145.785,355.981 145.600 C 355.831 145.490,355.577 144.950,355.418 144.400 C 354.903 142.626,353.198 138.303,351.377 134.152 C 350.399 131.926,349.600 130.000,349.600 129.872 C 349.600 129.183,342.728 115.057,342.300 114.867 C 342.135 114.793,341.997 114.433,341.993 114.067 C 341.990 113.700,341.549 112.680,341.013 111.800 C 340.477 110.920,339.375 108.940,338.564 107.400 C 335.879 102.302,331.600 96.629,331.600 98.168 C 331.600 98.275,331.167 97.967,330.638 97.482 C 328.835 95.829,328.390 95.559,327.933 95.841 C 327.676 96.000,327.585 95.948,327.725 95.721 C 327.862 95.499,327.035 94.726,325.887 94.002 C 324.739 93.279,323.374 92.397,322.854 92.043 C 321.159 90.890,318.231 89.199,316.800 88.548 C 316.030 88.197,315.310 87.768,315.200 87.594 C 314.871 87.073,302.792 80.875,301.677 80.654 C 300.601 80.441,299.434 79.889,299.000 79.387 C 298.780 79.132,297.970 78.695,297.200 78.415 C 296.430 78.135,295.260 77.671,294.600 77.384 C 293.940 77.097,292.903 76.738,292.296 76.587 C 291.689 76.435,291.092 76.148,290.969 75.949 C 290.845 75.750,290.577 75.691,290.372 75.817 C 290.168 75.944,290.000 75.893,290.000 75.705 C 290.000 75.517,287.795 74.671,285.100 73.826 C 282.405 72.980,279.930 72.194,279.600 72.079 C 279.270 71.963,278.910 71.838,278.800 71.801 C 278.690 71.764,278.090 71.522,277.466 71.264 C 276.843 71.005,276.168 70.896,275.966 71.021 C 275.765 71.145,275.600 71.087,275.600 70.890 C 275.600 70.535,274.654 70.305,267.800 68.993 C 265.820 68.614,263.830 68.134,263.378 67.926 C 262.926 67.718,262.386 67.592,262.178 67.645 C 261.970 67.698,261.002 67.514,260.027 67.235 C 259.051 66.957,257.659 66.799,256.933 66.884 C 256.207 66.969,255.565 66.922,255.506 66.779 C 255.448 66.637,254.084 66.413,252.477 66.282 L 249.553 66.043 248.789 67.826 C 248.368 68.808,248.034 69.723,248.046 69.860 C 248.058 69.998,247.828 70.259,247.534 70.441 C 247.240 70.622,246.992 70.912,246.983 71.085 C 246.974 71.258,246.659 71.976,246.283 72.680 C 245.324 74.478,245.425 75.147,246.700 75.423 C 247.305 75.555,248.160 75.825,248.600 76.024 C 250.170 76.733,258.464 78.808,258.829 78.582 C 259.033 78.456,259.200 78.543,259.200 78.776 C 259.200 79.009,259.515 79.201,259.900 79.202 C 260.285 79.204,261.140 79.487,261.800 79.831 C 262.460 80.176,263.489 80.472,264.086 80.489 C 264.684 80.507,265.099 80.639,265.010 80.784 C 264.921 80.928,266.502 81.568,268.524 82.206 C 270.546 82.844,273.190 83.846,274.400 84.434 C 275.610 85.021,277.050 85.632,277.600 85.792 C 279.249 86.271,289.743 91.451,292.576 93.185 C 294.027 94.073,295.366 94.800,295.551 94.800 C 295.736 94.800,296.673 95.421,297.632 96.181 C 298.675 97.006,299.480 97.395,299.633 97.147 C 299.793 96.888,299.968 96.941,300.102 97.290 C 300.441 98.173,307.218 102.834,307.734 102.538 C 307.990 102.392,308.076 102.410,307.924 102.578 C 307.664 102.868,310.939 105.990,311.524 106.009 C 311.676 106.014,312.682 106.824,313.761 107.809 C 314.840 108.794,315.920 109.617,316.161 109.638 C 316.402 109.658,317.305 110.475,318.166 111.453 C 319.704 113.199,318.852 113.537,316.931 111.942 C 316.658 111.716,316.219 111.664,315.956 111.827 C 315.690 111.992,315.581 111.955,315.711 111.744 C 315.966 111.331,303.188 104.930,301.004 104.377 C 299.539 104.006,299.200 103.860,299.200 103.604 C 299.200 103.438,297.805 102.748,296.100 102.072 C 294.395 101.395,292.460 100.623,291.800 100.356 C 291.140 100.089,290.465 99.900,290.300 99.935 C 290.135 99.971,290.000 99.835,290.000 99.633 C 290.000 99.431,287.975 98.596,285.500 97.778 C 283.025 96.959,280.362 95.969,279.583 95.579 C 278.264 94.918,276.863 94.479,271.200 92.956 C 269.990 92.631,268.730 92.250,268.400 92.110 C 268.070 91.971,267.488 91.824,267.107 91.783 C 266.726 91.743,266.186 91.525,265.907 91.299 C 265.628 91.073,263.960 90.575,262.200 90.194 C 260.440 89.812,257.920 89.256,256.600 88.958 C 255.280 88.660,253.705 88.413,253.100 88.408 C 252.495 88.404,252.000 88.226,252.000 88.013 C 252.000 87.799,251.728 87.730,251.395 87.857 C 251.062 87.985,250.530 87.874,250.212 87.610 C 249.895 87.347,249.447 87.247,249.218 87.389 C 248.988 87.531,248.800 87.492,248.800 87.303 C 248.800 87.004,244.742 86.317,236.200 85.169 C 234.880 84.992,232.000 84.728,229.800 84.583 C 227.600 84.438,225.620 84.203,225.400 84.061 C 225.180 83.919,223.920 83.764,222.600 83.717 C 221.280 83.670,218.670 83.459,216.800 83.248 C 212.391 82.750,187.609 82.750,183.200 83.248 C 181.330 83.459,178.690 83.670,177.334 83.716 C 175.977 83.762,174.732 83.935,174.567 84.100 C 174.402 84.265,173.352 84.409,172.233 84.420 C 170.424 84.437,164.669 85.060,159.600 85.786 C 152.245 86.841,150.276 87.205,149.801 87.599 C 149.503 87.846,149.021 88.009,148.730 87.961 C 148.438 87.913,147.930 87.975,147.600 88.099 C 147.270 88.222,145.560 88.609,143.800 88.958 C 137.607 90.186,134.990 90.803,134.000 91.269 C 133.450 91.528,132.846 91.702,132.658 91.656 C 132.470 91.610,132.110 91.733,131.858 91.931 C 131.440 92.259,129.907 92.750,128.400 93.041 C 127.007 93.309,123.256 94.494,121.400 95.253 C 120.300 95.702,117.341 96.774,114.825 97.633 C 112.309 98.493,110.106 99.422,109.931 99.698 C 109.756 99.974,109.609 100.043,109.606 99.851 C 109.603 99.659,109.374 99.690,109.097 99.920 C 108.820 100.149,107.875 100.602,106.997 100.927 C 102.527 102.577,101.164 103.179,100.581 103.762 C 100.230 104.113,99.606 104.400,99.195 104.400 C 98.784 104.400,98.336 104.580,98.200 104.800 C 98.064 105.020,97.661 105.200,97.304 105.200 C 96.531 105.200,88.259 109.208,88.067 109.676 C 87.993 109.854,87.633 110.003,87.267 110.007 C 86.900 110.011,85.610 110.567,84.400 111.242 C 79.854 113.778,79.632 112.608,84.115 109.740 C 85.001 109.174,85.515 108.586,85.353 108.324 C 85.193 108.064,85.256 107.987,85.504 108.141 C 85.739 108.286,85.992 108.246,86.066 108.051 C 86.140 107.857,86.886 107.235,87.724 106.670 C 88.563 106.105,89.881 105.138,90.653 104.521 C 91.425 103.905,92.565 102.995,93.186 102.500 C 93.807 102.005,94.432 101.600,94.575 101.600 C 94.718 101.600,96.024 100.700,97.477 99.600 C 98.930 98.500,100.319 97.600,100.564 97.600 C 100.808 97.600,101.478 97.164,102.052 96.632 C 102.626 96.100,104.199 95.107,105.548 94.426 C 106.897 93.745,108.000 92.981,108.000 92.728 C 108.000 92.474,108.118 92.384,108.261 92.528 C 108.405 92.672,109.080 92.447,109.761 92.028 C 112.220 90.517,118.852 87.249,122.487 85.757 C 124.529 84.919,126.290 84.118,126.400 83.979 C 126.510 83.839,128.850 82.974,131.600 82.057 C 134.350 81.139,136.901 80.218,137.269 80.010 C 137.637 79.802,140.787 78.900,144.269 78.004 C 147.751 77.109,150.876 76.225,151.213 76.039 C 151.550 75.854,152.405 75.575,153.113 75.419 C 154.969 75.012,155.004 75.161,151.370 68.000 C 150.584 66.452,149.334 65.614,148.712 66.219 M148.600 184.000 C 148.736 184.220,149.294 184.400,149.840 184.400 C 151.948 184.400,159.562 187.368,160.231 188.450 C 160.354 188.650,160.651 188.692,160.889 188.545 C 161.149 188.385,161.209 188.463,161.038 188.738 C 160.881 188.992,160.933 189.200,161.152 189.200 C 161.602 189.200,168.105 195.593,167.676 195.613 C 167.524 195.620,167.671 195.845,168.002 196.113 C 169.004 196.925,172.298 203.993,173.262 207.400 C 175.054 213.736,174.153 227.567,171.763 230.400 C 171.485 230.730,171.285 231.090,171.319 231.200 C 171.582 232.050,167.261 238.540,164.867 240.891 C 161.443 244.253,160.517 244.940,157.215 246.571 C 151.250 249.518,140.269 250.284,137.363 247.957 C 137.123 247.764,136.834 247.700,136.720 247.813 C 136.607 247.927,136.286 247.745,136.008 247.410 C 135.730 247.074,135.257 246.800,134.957 246.800 C 132.155 246.800,124.440 239.187,121.580 233.600 C 120.848 232.170,119.985 230.685,119.662 230.300 C 119.340 229.915,119.177 229.600,119.301 229.600 C 119.425 229.600,119.181 228.475,118.758 227.100 C 118.335 225.725,117.916 223.970,117.827 223.200 C 116.718 213.613,117.768 206.633,121.279 200.265 C 122.148 198.689,122.890 197.233,122.929 197.029 C 122.968 196.825,123.773 195.835,124.719 194.829 C 125.664 193.823,126.738 192.505,127.105 191.900 C 127.472 191.295,127.921 190.800,128.103 190.800 C 128.285 190.800,129.372 190.105,130.517 189.256 C 134.166 186.550,139.141 184.400,141.752 184.400 C 142.302 184.400,142.864 184.220,143.000 184.000 C 143.136 183.780,144.396 183.600,145.800 183.600 C 147.204 183.600,148.464 183.780,148.600 184.000 M257.000 184.000 C 257.136 184.220,257.694 184.400,258.240 184.400 C 259.758 184.400,264.353 185.993,266.519 187.270 C 267.585 187.898,268.651 188.292,268.890 188.144 C 269.132 187.995,269.210 188.061,269.066 188.293 C 268.924 188.523,269.796 189.456,271.004 190.368 C 272.212 191.280,273.202 192.155,273.204 192.313 C 273.206 192.471,274.107 193.544,275.207 194.698 C 276.306 195.851,277.204 196.886,277.202 196.998 C 277.201 197.109,277.200 197.346,277.200 197.525 C 277.200 197.703,277.525 198.198,277.922 198.625 C 278.320 199.051,278.653 199.490,278.664 199.600 C 278.755 200.571,279.339 201.561,279.691 201.344 C 279.954 201.181,280.008 201.264,279.827 201.556 C 279.664 201.819,279.702 202.252,279.910 202.518 C 280.350 203.077,281.799 207.919,282.172 210.074 C 283.118 215.545,282.620 222.571,280.902 228.000 C 280.310 229.870,279.845 231.625,279.869 231.900 C 279.892 232.175,279.706 232.401,279.456 232.401 C 279.205 232.402,278.377 233.617,277.615 235.101 C 275.746 238.744,270.543 243.968,266.890 245.871 C 265.410 246.641,263.975 247.457,263.700 247.685 C 263.425 247.912,263.200 247.964,263.200 247.800 C 263.200 247.636,262.975 247.683,262.700 247.904 C 259.743 250.283,248.819 249.552,242.785 246.571 C 239.483 244.940,238.557 244.253,235.133 240.891 C 225.780 231.708,222.728 213.498,228.661 202.273 C 229.221 201.213,229.582 200.249,229.464 200.130 C 229.345 200.012,229.591 199.547,230.010 199.097 C 230.429 198.647,230.678 198.126,230.563 197.939 C 230.447 197.753,230.543 197.600,230.776 197.600 C 231.009 197.600,231.200 197.432,231.200 197.226 C 231.200 196.859,233.365 194.294,235.847 191.720 C 236.532 191.009,237.027 190.331,236.947 190.213 C 236.866 190.096,236.918 190.088,237.063 190.196 C 237.208 190.305,238.063 189.795,238.963 189.065 C 241.770 186.788,245.942 185.021,249.703 184.517 C 250.529 184.406,251.305 184.155,251.426 183.958 C 251.730 183.466,256.693 183.504,257.000 184.000 " stroke="none" fill="#7E8CE2" fill-rule="evenodd"></path></g></svg>
