<svg id="svg" xmlns="http://www.w3.org/2000/svg" xmlns:xlink="http://www.w3.org/1999/xlink" width="400" height="400" viewBox="0, 0, 400,400" version="1.1"><g id="svgg"><path id="path0" d="M171.997 18.900 C 168.724 23.200,162.057 32.471,157.600 38.917 C 155.070 42.577,152.910 45.571,152.800 45.571 C 152.690 45.570,151.557 44.602,150.282 43.419 C 147.787 41.105,143.616 38.817,140.000 37.780 C 136.227 36.699,107.898 35.142,107.069 35.971 C 106.833 36.207,106.082 36.400,105.400 36.400 C 104.718 36.400,103.989 36.543,103.780 36.718 C 103.571 36.893,102.680 37.279,101.800 37.575 C 94.833 39.919,86.400 50.363,86.400 56.647 C 86.400 57.303,86.233 58.011,86.029 58.220 C 85.824 58.429,85.552 61.030,85.424 64.000 C 85.296 66.970,85.092 71.333,84.970 73.696 C 84.789 77.203,84.864 78.155,85.374 78.885 C 85.779 79.462,86.000 80.656,86.000 82.263 C 86.000 93.744,93.694 103.811,104.596 106.595 C 105.914 106.931,111.220 107.477,116.387 107.808 C 127.587 108.525,126.794 108.044,126.263 113.800 C 125.346 123.726,127.233 135.066,131.439 144.891 C 133.057 148.672,133.091 148.593,129.203 150.211 C 95.513 164.233,63.232 194.471,45.946 228.200 C 32.234 254.955,27.220 280.041,26.530 325.355 C 26.283 341.609,26.230 342.519,25.527 342.703 C 24.829 342.886,24.791 343.397,24.892 351.149 L 25.000 359.400 26.364 359.530 C 27.516 359.640,27.950 359.419,29.164 358.104 C 29.954 357.249,32.850 354.158,35.600 351.237 C 38.350 348.315,41.432 344.999,42.448 343.867 L 44.296 341.809 45.768 346.604 C 47.321 351.662,48.402 354.699,49.646 357.496 C 50.061 358.428,50.400 359.427,50.400 359.716 C 50.400 360.004,50.553 360.411,50.740 360.620 C 50.927 360.829,51.358 361.720,51.698 362.600 C 52.799 365.452,57.121 374.079,59.913 379.000 L 62.637 383.800 73.519 383.906 C 86.494 384.033,85.809 384.580,81.267 377.727 C 70.719 361.813,61.956 340.364,59.789 325.160 C 59.473 322.939,57.939 324.753,79.159 302.258 C 96.379 284.004,96.229 284.116,93.965 291.159 C 93.286 293.271,91.503 298.870,90.003 303.600 C 88.503 308.330,85.818 316.761,84.038 322.335 C 82.257 327.909,80.800 332.634,80.800 332.835 C 80.800 333.682,82.089 332.862,91.113 326.273 C 115.984 308.115,129.402 300.719,149.717 293.970 C 183.256 282.829,223.170 282.721,263.152 293.663 C 280.310 298.359,289.061 299.350,299.800 297.813 C 314.759 295.671,328.645 287.129,335.744 275.700 C 338.825 270.741,338.833 270.730,339.372 271.177 C 339.660 271.416,339.996 272.284,340.118 273.106 C 340.240 273.928,340.607 276.130,340.934 278.000 C 346.485 309.800,338.597 355.673,323.258 380.800 C 322.788 381.570,322.402 382.605,322.401 383.100 L 322.400 384.000 332.400 384.000 L 342.400 384.000 342.400 382.607 C 342.400 381.818,343.107 379.695,344.032 377.707 C 358.027 347.623,363.423 304.078,357.179 271.608 C 346.592 216.560,306.059 168.341,253.800 148.629 C 245.717 145.580,246.000 145.717,246.000 144.856 C 246.000 144.438,246.441 142.923,246.981 141.490 C 257.872 112.555,244.362 79.232,216.292 65.794 C 207.567 61.618,198.253 59.158,187.811 58.272 C 181.032 57.697,181.053 57.715,181.341 52.400 C 181.621 47.259,182.200 45.218,183.915 43.340 C 184.772 42.401,185.639 40.886,185.965 39.756 C 186.275 38.680,187.490 35.507,188.665 32.705 C 191.407 26.161,191.405 26.143,187.710 24.141 C 186.879 23.691,185.550 22.952,184.755 22.499 C 183.960 22.046,182.880 21.433,182.355 21.138 C 181.830 20.842,181.310 20.510,181.200 20.400 C 180.981 20.181,180.068 19.652,176.938 17.933 C 174.164 16.409,173.846 16.471,171.997 18.900 M125.072 55.420 C 138.958 56.323,140.258 57.208,139.906 65.510 L 139.724 69.800 137.114 75.200 C 135.678 78.170,133.657 82.760,132.623 85.400 C 130.082 91.887,131.440 91.328,119.975 90.608 C 103.219 89.554,103.145 89.480,103.981 74.676 C 105.200 53.095,104.144 54.058,125.072 55.420 M166.438 65.276 C 169.907 72.147,175.043 74.970,185.200 75.587 C 193.619 76.098,202.890 78.425,209.269 81.628 C 235.453 94.776,241.399 129.552,221.066 150.623 C 217.476 154.344,217.874 154.415,213.726 149.300 C 205.677 139.375,201.014 136.622,192.400 136.708 C 180.761 136.825,170.400 146.679,170.400 157.632 C 170.400 159.512,169.465 159.461,165.888 157.388 C 137.238 140.780,136.004 107.067,162.535 65.700 C 164.791 62.182,164.872 62.173,166.438 65.276 M115.841 67.247 C 115.731 67.771,115.526 70.567,115.386 73.461 L 115.132 78.721 116.266 78.938 C 116.890 79.057,119.677 79.272,122.461 79.415 C 128.450 79.724,127.835 80.436,128.219 72.742 C 128.542 66.285,129.272 66.958,121.521 66.569 L 116.042 66.294 115.841 67.247 M194.543 154.600 C 195.866 155.227,240.267 209.423,241.743 212.211 C 243.322 215.194,241.229 218.800,237.920 218.800 C 235.795 218.800,234.962 218.244,232.335 215.070 C 231.210 213.712,230.059 212.464,229.777 212.298 C 229.444 212.102,226.498 214.250,221.352 218.439 C 210.403 227.353,210.980 227.290,205.161 220.190 C 198.496 212.060,198.036 213.328,211.717 202.101 C 218.106 196.858,217.935 197.391,214.562 193.213 C 211.135 188.968,211.474 188.988,206.744 192.767 C 201.199 197.198,200.086 197.304,197.318 193.669 C 194.997 190.621,195.395 189.582,200.517 185.336 C 202.543 183.657,204.338 182.050,204.507 181.765 C 204.813 181.248,203.869 180.011,193.275 167.037 C 190.776 163.977,188.553 161.007,188.334 160.437 C 186.888 156.675,190.923 152.882,194.543 154.600 M242.000 162.948 C 287.868 178.895,327.599 219.837,326.282 249.800 C 325.172 275.070,302.997 286.504,271.600 277.995 C 213.472 262.240,165.878 265.152,120.479 287.238 C 113.423 290.671,112.400 291.091,112.400 290.551 C 112.400 290.310,116.782 276.436,122.935 257.200 C 135.418 218.170,135.229 218.800,134.466 218.800 C 134.191 218.800,111.517 242.754,51.452 306.498 C 47.961 310.203,44.901 313.166,44.652 313.081 C 43.290 312.618,45.385 289.077,48.017 275.267 C 55.976 233.518,81.799 197.406,120.119 174.436 C 126.976 170.326,141.867 163.200,143.599 163.200 C 143.733 163.200,145.543 164.562,147.621 166.226 C 155.905 172.860,166.867 178.094,176.754 180.138 C 180.572 180.927,180.616 180.986,179.604 183.988 C 177.388 190.568,178.447 197.332,182.650 203.444 L 184.056 205.488 183.428 208.527 C 182.404 213.482,182.943 218.031,185.067 222.373 C 186.366 225.029,194.945 235.778,197.526 237.984 C 205.674 244.948,216.779 244.746,225.800 237.469 C 228.898 234.970,228.988 234.947,232.265 235.800 C 248.134 239.933,263.153 225.225,259.385 209.241 C 258.302 204.646,256.463 201.987,242.393 184.669 C 234.917 175.468,228.800 167.858,228.800 167.759 C 228.800 167.176,235.535 161.222,236.200 161.216 C 236.640 161.213,239.250 161.992,242.000 162.948 M149.837 329.371 C 140.189 333.418,137.752 345.594,145.195 352.557 C 157.077 363.671,174.954 349.845,167.276 335.479 C 164.136 329.603,156.042 326.768,149.837 329.371 M239.929 329.353 C 226.629 334.823,228.619 353.730,242.775 356.398 C 251.473 358.037,259.723 350.529,259.129 341.516 C 258.506 332.059,248.602 325.786,239.929 329.353 " stroke="none" fill="#2d2d29" fill-rule="evenodd"></path><path id="path1" d="M162.535 65.700 C 136.004 107.067,137.238 140.780,165.888 157.388 C 169.465 159.461,170.400 159.512,170.400 157.632 C 170.400 146.679,180.761 136.825,192.400 136.708 C 201.014 136.622,205.677 139.375,213.726 149.300 C 217.874 154.415,217.476 154.344,221.066 150.623 C 241.399 129.552,235.453 94.776,209.269 81.628 C 202.890 78.425,193.619 76.098,185.200 75.587 C 175.043 74.970,169.907 72.147,166.438 65.276 C 164.872 62.173,164.791 62.182,162.535 65.700 M232.100 164.401 C 230.285 166.150,228.800 167.661,228.800 167.759 C 228.800 167.858,234.917 175.468,242.393 184.669 C 256.463 201.987,258.302 204.646,259.385 209.241 C 263.153 225.225,248.134 239.933,232.265 235.800 C 228.988 234.947,228.898 234.970,225.800 237.469 C 216.779 244.746,205.674 244.948,197.526 237.984 C 194.945 235.778,186.366 225.029,185.067 222.373 C 182.943 218.031,182.404 213.482,183.428 208.527 L 184.056 205.488 182.650 203.444 C 178.447 197.332,177.388 190.568,179.604 183.988 C 180.616 180.986,180.572 180.927,176.754 180.138 C 166.867 178.094,155.905 172.860,147.621 166.226 C 145.543 164.562,143.733 163.200,143.599 163.200 C 141.867 163.200,126.976 170.326,120.119 174.436 C 81.799 197.406,55.976 233.518,48.017 275.267 C 45.385 289.077,43.290 312.618,44.652 313.081 C 44.901 313.166,47.961 310.203,51.452 306.498 C 111.517 242.754,134.191 218.800,134.466 218.800 C 135.229 218.800,135.418 218.170,122.935 257.200 C 116.782 276.436,112.400 290.310,112.400 290.551 C 112.400 291.091,113.423 290.671,120.479 287.238 C 165.878 265.152,213.472 262.240,271.600 277.995 C 299.561 285.573,319.951 277.621,325.433 257.000 C 333.461 226.804,292.340 180.450,242.000 162.948 C 235.596 160.722,235.978 160.666,232.100 164.401 " stroke="none" fill="#fa6b24" fill-rule="evenodd"></path><path id="path2" d="M337.628 274.436 C 331.576 285.204,319.456 294.035,306.034 297.457 C 293.686 300.605,282.994 299.965,264.649 294.978 C 215.985 281.751,172.610 283.750,134.000 301.000 C 120.407 307.073,111.515 312.502,92.800 326.153 C 88.290 329.442,83.769 332.734,82.752 333.467 C 79.704 335.666,78.981 335.121,80.161 331.514 C 80.469 330.571,81.262 328.090,81.923 326.000 C 84.124 319.035,88.839 304.290,91.294 296.693 C 93.835 288.825,93.938 287.691,91.897 290.000 C 91.216 290.770,85.058 297.340,78.211 304.600 C 62.352 321.417,60.400 323.519,60.400 323.791 C 60.400 323.913,60.855 326.126,61.411 328.707 C 65.181 346.209,72.686 363.742,82.539 378.068 C 84.003 380.196,85.200 382.185,85.200 382.488 C 85.200 384.038,82.209 384.000,203.400 384.000 C 324.521 384.000,321.600 384.037,321.600 382.495 C 321.600 382.195,322.672 380.026,323.981 377.675 C 337.409 353.570,345.022 310.671,340.803 282.883 C 339.196 272.303,339.048 271.909,337.628 274.436 M159.200 328.090 C 173.724 332.433,173.370 353.126,158.706 357.030 C 146.585 360.257,135.948 347.220,141.500 335.943 C 144.754 329.333,152.245 326.009,159.200 328.090 M250.550 328.497 C 260.983 332.217,263.277 346.831,254.572 354.110 C 247.723 359.838,236.696 357.908,232.173 350.189 C 224.902 337.783,236.894 323.628,250.550 328.497 " stroke="none" fill="#fbfbfb" fill-rule="evenodd"></path><path id="path3" d="M108.389 55.637 C 105.081 57.556,104.905 58.316,103.981 74.676 C 103.145 89.480,103.219 89.554,119.975 90.608 C 131.440 91.328,130.082 91.887,132.623 85.400 C 133.657 82.760,135.678 78.170,137.114 75.200 L 139.724 69.800 139.906 65.510 C 140.258 57.208,138.958 56.323,125.072 55.420 C 112.256 54.586,110.153 54.613,108.389 55.637 M127.746 67.063 C 128.475 67.278,128.466 76.396,127.734 78.938 C 127.524 79.669,120.094 79.669,116.266 78.938 L 115.132 78.721 115.386 73.461 C 115.526 70.567,115.731 67.771,115.841 67.247 L 116.042 66.294 121.521 66.569 C 124.534 66.720,127.336 66.943,127.746 67.063 M191.000 154.561 C 186.410 156.587,186.890 159.218,193.275 167.037 C 203.869 180.011,204.813 181.248,204.507 181.765 C 204.338 182.050,202.543 183.657,200.517 185.336 C 195.395 189.582,194.997 190.621,197.318 193.669 C 200.086 197.304,201.199 197.198,206.744 192.767 C 211.474 188.988,211.135 188.968,214.562 193.213 C 217.935 197.391,218.106 196.858,211.717 202.101 C 198.036 213.328,198.496 212.060,205.161 220.190 C 210.980 227.290,210.403 227.353,221.352 218.439 C 226.498 214.250,229.444 212.102,229.777 212.298 C 230.059 212.464,231.210 213.712,232.335 215.070 C 236.551 220.164,241.258 220.163,242.214 215.068 C 242.635 212.824,242.589 212.763,218.404 183.004 C 193.622 152.511,194.226 153.137,191.000 154.561 M338.430 271.364 C 338.039 271.834,338.095 271.900,338.741 271.731 C 339.278 271.591,339.587 271.759,339.717 272.263 C 339.867 272.844,339.917 272.862,339.954 272.349 C 340.027 271.325,339.009 270.667,338.430 271.364 M336.953 273.700 C 335.576 276.036,335.486 276.235,336.187 275.400 C 337.000 274.432,337.700 273.200,337.438 273.200 C 337.333 273.200,337.115 273.425,336.953 273.700 M341.293 281.600 C 341.293 282.370,341.375 282.685,341.476 282.300 C 341.576 281.915,341.576 281.285,341.476 280.900 C 341.375 280.515,341.293 280.830,341.293 281.600 M329.178 283.900 L 327.800 285.400 329.300 284.022 C 330.125 283.263,330.800 282.588,330.800 282.522 C 330.800 282.216,330.462 282.504,329.178 283.900 M326.186 286.312 C 325.519 286.910,324.349 287.907,323.586 288.526 C 322.437 289.459,322.522 289.432,324.081 288.371 C 325.752 287.234,328.020 285.181,327.570 285.212 C 327.476 285.218,326.854 285.713,326.186 286.312 M193.100 285.893 C 194.035 285.977,195.565 285.977,196.500 285.893 C 197.435 285.809,196.670 285.740,194.800 285.740 C 192.930 285.740,192.165 285.809,193.100 285.893 M213.100 285.889 C 213.815 285.978,214.985 285.978,215.700 285.889 C 216.415 285.801,215.830 285.728,214.400 285.728 C 212.970 285.728,212.385 285.801,213.100 285.889 M187.700 286.276 C 188.085 286.376,188.715 286.376,189.100 286.276 C 189.485 286.175,189.170 286.093,188.400 286.093 C 187.630 286.093,187.315 286.175,187.700 286.276 M219.705 286.287 C 220.314 286.379,221.214 286.377,221.705 286.282 C 222.197 286.187,221.700 286.111,220.600 286.114 C 219.500 286.117,219.097 286.195,219.705 286.287 M91.787 288.900 L 89.400 291.400 91.812 289.100 C 94.458 286.577,94.656 286.474,94.924 287.500 C 95.062 288.027,95.119 287.977,95.154 287.300 C 95.230 285.822,94.310 286.259,91.787 288.900 M184.305 286.683 C 184.802 286.779,185.522 286.775,185.905 286.675 C 186.287 286.575,185.880 286.496,185.000 286.501 C 184.120 286.505,183.807 286.587,184.305 286.683 M224.305 286.683 C 224.802 286.779,225.522 286.775,225.905 286.675 C 226.287 286.575,225.880 286.496,225.000 286.501 C 224.120 286.505,223.807 286.587,224.305 286.683 M180.500 287.076 C 180.885 287.176,181.515 287.176,181.900 287.076 C 182.285 286.975,181.970 286.893,181.200 286.893 C 180.430 286.893,180.115 286.975,180.500 287.076 M227.700 287.076 C 228.085 287.176,228.715 287.176,229.100 287.076 C 229.485 286.975,229.170 286.893,228.400 286.893 C 227.630 286.893,227.315 286.975,227.700 287.076 M231.105 287.483 C 231.602 287.579,232.322 287.575,232.705 287.475 C 233.087 287.375,232.680 287.296,231.800 287.301 C 230.920 287.305,230.607 287.387,231.105 287.483 M342.120 289.200 C 342.120 290.410,342.195 290.905,342.287 290.300 C 342.378 289.695,342.378 288.705,342.287 288.100 C 342.195 287.495,342.120 287.990,342.120 289.200 M86.000 295.000 C 84.361 296.650,83.110 298.000,83.220 298.000 C 83.330 298.000,84.761 296.650,86.400 295.000 C 88.039 293.350,89.290 292.000,89.180 292.000 C 89.070 292.000,87.639 293.350,86.000 295.000 M342.554 300.000 C 342.554 302.750,342.618 303.875,342.696 302.500 C 342.774 301.125,342.774 298.875,342.696 297.500 C 342.618 296.125,342.554 297.250,342.554 300.000 M282.500 298.276 C 282.885 298.376,283.515 298.376,283.900 298.276 C 284.285 298.175,283.970 298.093,283.200 298.093 C 282.430 298.093,282.115 298.175,282.500 298.276 M297.300 298.276 C 297.685 298.376,298.315 298.376,298.700 298.276 C 299.085 298.175,298.770 298.093,298.000 298.093 C 297.230 298.093,296.915 298.175,297.300 298.276 M288.900 298.694 C 289.945 298.776,291.655 298.776,292.700 298.694 C 293.745 298.612,292.890 298.544,290.800 298.544 C 288.710 298.544,287.855 298.612,288.900 298.694 M79.600 301.800 C 77.961 303.450,76.710 304.800,76.820 304.800 C 76.930 304.800,78.361 303.450,80.000 301.800 C 81.639 300.150,82.890 298.800,82.780 298.800 C 82.670 298.800,81.239 300.150,79.600 301.800 M130.800 301.400 C 130.250 301.714,129.980 301.972,130.200 301.972 C 130.420 301.972,131.050 301.714,131.600 301.400 C 132.150 301.086,132.420 300.828,132.200 300.828 C 131.980 300.828,131.350 301.086,130.800 301.400 M122.700 305.426 C 121.655 305.970,120.800 306.505,120.800 306.614 C 120.800 306.724,121.700 306.357,122.800 305.800 C 123.900 305.243,124.800 304.700,124.800 304.593 C 124.800 304.329,124.836 304.314,122.700 305.426 M73.200 308.600 C 71.561 310.250,70.310 311.600,70.420 311.600 C 70.530 311.600,71.961 310.250,73.600 308.600 C 75.239 306.950,76.490 305.600,76.380 305.600 C 76.270 305.600,74.839 306.950,73.200 308.600 M342.124 311.400 C 342.126 312.720,342.201 313.212,342.290 312.493 C 342.379 311.774,342.377 310.694,342.286 310.093 C 342.195 309.492,342.122 310.080,342.124 311.400 M87.029 311.829 C 86.881 312.415,86.838 312.972,86.932 313.066 C 87.027 313.160,87.224 312.758,87.371 312.171 C 87.519 311.585,87.562 311.028,87.468 310.934 C 87.373 310.840,87.176 311.242,87.029 311.829 M66.191 316.100 L 63.000 319.400 66.300 316.209 C 68.115 314.455,69.600 312.970,69.600 312.909 C 69.600 312.618,69.154 313.035,66.191 316.100 M105.300 316.040 C 104.365 316.702,103.600 317.333,103.600 317.441 C 103.600 317.550,104.410 317.081,105.400 316.400 C 106.390 315.719,107.200 315.080,107.200 314.981 C 107.200 314.705,107.124 314.748,105.300 316.040 M341.709 316.400 C 341.709 317.390,341.787 317.795,341.882 317.300 C 341.978 316.805,341.978 315.995,341.882 315.500 C 341.787 315.005,341.709 315.410,341.709 316.400 M61.178 321.500 L 59.800 323.000 61.300 321.622 C 62.696 320.338,62.984 320.000,62.678 320.000 C 62.612 320.000,61.937 320.675,61.178 321.500 M341.293 321.200 C 341.293 321.970,341.375 322.285,341.476 321.900 C 341.576 321.515,341.576 320.885,341.476 320.500 C 341.375 320.115,341.293 320.430,341.293 321.200 M97.800 321.435 L 96.600 322.466 97.900 321.606 C 98.615 321.133,99.200 320.668,99.200 320.573 C 99.200 320.273,99.031 320.378,97.800 321.435 M87.400 329.035 L 86.200 330.066 87.500 329.206 C 88.215 328.733,88.800 328.268,88.800 328.173 C 88.800 327.873,88.631 327.978,87.400 329.035 M153.907 328.290 C 154.626 328.379,155.706 328.377,156.307 328.286 C 156.908 328.195,156.320 328.122,155.000 328.124 C 153.680 328.126,153.188 328.201,153.907 328.290 M243.907 328.290 C 244.626 328.379,245.706 328.377,246.307 328.286 C 246.908 328.195,246.320 328.122,245.000 328.124 C 243.680 328.126,243.188 328.201,243.907 328.290 M248.600 328.800 C 249.040 328.989,249.670 329.144,250.000 329.144 C 250.378 329.144,250.304 329.017,249.800 328.800 C 249.360 328.611,248.730 328.456,248.400 328.456 C 248.022 328.456,248.096 328.583,248.600 328.800 M148.326 329.614 C 147.515 330.042,146.716 330.619,146.549 330.896 C 146.310 331.295,146.372 331.299,146.846 330.915 C 147.176 330.648,148.246 330.067,149.223 329.624 C 150.200 329.180,150.730 328.822,150.400 328.826 C 150.070 328.831,149.137 329.186,148.326 329.614 M160.433 329.328 C 161.069 329.815,163.600 331.136,163.600 330.981 C 163.600 330.713,161.082 329.203,160.633 329.201 C 160.432 329.201,160.342 329.257,160.433 329.328 M254.873 332.203 C 255.684 333.081,256.806 334.610,257.368 335.600 C 257.931 336.590,258.393 337.210,258.395 336.978 C 258.404 336.238,256.155 333.042,254.754 331.803 C 253.420 330.622,253.421 330.628,254.873 332.203 M144.575 332.500 L 143.400 333.800 144.700 332.625 C 145.912 331.530,146.184 331.200,145.875 331.200 C 145.806 331.200,145.221 331.785,144.575 332.500 M164.000 331.325 C 164.000 331.394,164.585 331.979,165.300 332.625 L 166.600 333.800 165.425 332.500 C 164.330 331.288,164.000 331.016,164.000 331.325 M80.400 333.121 C 80.400 333.736,80.577 333.907,81.034 333.732 C 81.382 333.598,81.517 333.377,81.334 333.240 C 81.150 333.103,80.865 332.828,80.700 332.629 C 80.535 332.430,80.400 332.651,80.400 333.121 M62.456 336.800 C 62.456 337.130,62.611 337.760,62.800 338.200 C 63.017 338.704,63.144 338.778,63.144 338.400 C 63.144 338.070,62.989 337.440,62.800 337.000 C 62.583 336.496,62.456 336.422,62.456 336.800 M259.309 342.400 C 259.309 343.390,259.387 343.795,259.482 343.300 C 259.578 342.805,259.578 341.995,259.482 341.500 C 259.387 341.005,259.309 341.410,259.309 342.400 M141.600 347.753 C 141.600 348.182,142.790 350.400,143.021 350.400 C 143.131 350.400,142.923 349.815,142.559 349.100 C 141.817 347.640,141.600 347.336,141.600 347.753 M165.224 352.118 C 163.543 354.089,163.529 354.125,164.957 352.800 C 166.223 351.626,167.518 349.954,167.114 350.018 C 167.051 350.028,166.201 350.973,165.224 352.118 M144.600 352.400 C 145.459 353.280,146.252 354.000,146.362 354.000 C 146.472 354.000,145.859 353.280,145.000 352.400 C 144.141 351.520,143.348 350.800,143.238 350.800 C 143.128 350.800,143.741 351.520,144.600 352.400 M254.400 352.882 C 253.190 354.011,252.560 354.738,253.000 354.499 C 253.769 354.080,257.153 350.784,256.781 350.815 C 256.682 350.824,255.610 351.754,254.400 352.882 M234.800 352.600 C 235.546 353.370,236.247 354.000,236.357 354.000 C 236.467 354.000,235.946 353.370,235.200 352.600 C 234.454 351.830,233.753 351.200,233.643 351.200 C 233.533 351.200,234.054 351.830,234.800 352.600 M69.228 355.800 C 69.228 356.020,69.486 356.650,69.800 357.200 C 70.114 357.750,70.372 358.020,70.372 357.800 C 70.372 357.580,70.114 356.950,69.800 356.400 C 69.486 355.850,69.228 355.580,69.228 355.800 M70.800 359.343 C 70.800 359.778,73.587 365.200,73.810 365.200 C 73.920 365.200,73.357 363.895,72.558 362.300 C 71.060 359.307,70.800 358.870,70.800 359.343 M83.813 381.531 C 83.963 381.824,84.231 382.544,84.409 383.131 C 84.667 383.989,84.738 384.037,84.766 383.376 C 84.785 382.924,84.517 382.204,84.170 381.776 C 83.824 381.349,83.663 381.239,83.813 381.531 " stroke="none" fill="#3bca8b" fill-rule="evenodd"></path><path id="path4" d="M184.411 43.693 C 183.077 45.749,182.009 53.350,182.711 55.800 L 183.055 57.000 187.827 57.249 C 192.338 57.484,195.338 57.894,199.000 58.776 C 199.880 58.988,201.410 59.336,202.400 59.550 C 225.803 64.606,245.151 83.579,250.200 106.421 C 250.562 108.059,251.025 110.051,251.229 110.846 C 251.732 112.809,251.701 127.985,251.189 130.323 C 250.962 131.355,250.587 133.100,250.354 134.200 C 250.122 135.300,249.317 138.018,248.566 140.241 C 246.875 145.243,246.858 144.973,248.900 145.574 C 290.650 157.859,333.921 199.734,350.402 243.800 C 356.174 259.234,358.788 270.442,360.429 286.800 C 361.363 296.101,360.318 321.369,358.561 332.000 C 356.109 346.833,351.096 365.432,347.970 371.295 C 347.767 371.677,347.600 372.161,347.600 372.371 C 347.600 372.582,346.610 374.852,345.400 377.418 C 342.992 382.523,342.729 383.667,344.010 383.471 C 344.975 383.324,348.400 380.064,348.400 379.293 C 348.400 378.996,348.580 378.864,348.800 379.000 C 349.020 379.136,349.200 379.063,349.200 378.838 C 349.200 378.612,350.052 377.612,351.093 376.614 C 352.134 375.616,352.861 374.800,352.709 374.800 C 352.557 374.800,353.167 374.035,354.065 373.100 C 355.702 371.395,356.701 370.144,361.172 364.200 C 362.496 362.440,363.755 360.792,363.971 360.537 C 364.187 360.282,364.999 359.079,365.777 357.863 C 366.554 356.648,367.373 355.540,367.595 355.403 C 367.818 355.265,368.000 354.793,368.000 354.353 C 368.000 353.913,368.180 353.664,368.400 353.800 C 368.620 353.936,368.800 353.696,368.800 353.266 C 368.800 352.837,369.070 352.382,369.400 352.255 C 369.730 352.129,370.000 351.749,370.000 351.413 C 370.000 351.076,370.141 350.800,370.314 350.800 C 370.487 350.800,371.162 349.774,371.814 348.519 C 372.466 347.265,373.315 345.881,373.700 345.444 C 374.347 344.709,374.457 344.428,374.366 343.745 C 374.347 343.604,374.525 343.370,374.761 343.224 C 374.998 343.078,375.930 341.528,376.833 339.779 C 377.737 338.031,378.653 336.384,378.870 336.120 C 379.087 335.856,379.303 335.379,379.350 335.060 C 379.397 334.741,379.674 334.193,379.967 333.840 C 380.259 333.488,380.373 333.200,380.220 333.200 C 380.068 333.200,380.227 332.915,380.575 332.568 C 380.923 332.220,381.105 331.770,380.980 331.568 C 380.855 331.365,380.931 331.200,381.149 331.200 C 381.368 331.200,381.673 330.795,381.828 330.300 C 381.984 329.805,382.625 328.335,383.253 327.034 C 383.881 325.733,384.441 324.383,384.498 324.034 C 384.554 323.685,384.835 323.152,385.123 322.848 C 385.411 322.545,385.548 322.041,385.428 321.728 C 385.307 321.412,385.386 321.267,385.605 321.403 C 385.833 321.544,386.000 321.120,386.000 320.400 C 386.000 319.714,386.153 319.247,386.340 319.363 C 386.528 319.479,386.919 318.814,387.211 317.887 C 387.503 316.959,387.840 316.020,387.960 315.800 C 388.199 315.360,388.423 314.474,388.490 313.700 C 388.514 313.425,388.655 313.200,388.803 313.200 C 388.951 313.200,389.302 312.435,389.583 311.500 C 389.864 310.565,390.198 309.530,390.324 309.200 C 390.451 308.870,390.582 308.420,390.616 308.200 C 390.650 307.980,390.809 307.499,390.969 307.131 C 391.130 306.763,391.301 306.223,391.350 305.931 C 391.399 305.639,391.650 305.015,391.909 304.545 C 392.169 304.074,392.423 303.129,392.475 302.445 C 392.527 301.760,392.733 301.200,392.932 301.200 C 393.131 301.200,393.206 300.744,393.099 300.186 C 392.993 299.629,393.014 299.280,393.146 299.412 C 393.368 299.634,394.189 297.136,394.662 294.800 C 394.774 294.250,394.967 293.530,395.093 293.200 C 395.218 292.870,395.365 292.394,395.419 292.141 C 395.473 291.889,395.828 290.359,396.209 288.741 C 397.536 283.093,398.153 279.948,398.629 276.400 C 398.732 275.630,398.920 274.460,399.046 273.800 C 399.706 270.345,399.800 266.627,399.800 244.000 C 399.800 221.216,399.607 214.182,398.952 213.123 C 398.811 212.895,398.651 211.964,398.597 211.054 C 398.542 210.144,398.387 208.950,398.253 208.400 C 398.118 207.850,397.934 206.950,397.843 206.400 C 397.752 205.850,397.572 204.950,397.443 204.400 C 397.314 203.850,397.128 202.950,397.030 202.400 C 396.932 201.850,396.646 200.500,396.395 199.400 C 396.145 198.300,395.844 196.815,395.726 196.100 C 395.609 195.385,395.397 194.800,395.256 194.800 C 395.115 194.800,394.961 194.395,394.914 193.900 C 394.776 192.447,394.575 191.642,394.278 191.345 C 394.125 191.192,394.000 190.655,394.000 190.152 C 394.000 189.649,393.833 188.824,393.629 188.319 C 393.425 187.813,392.670 185.465,391.950 183.100 C 391.231 180.735,390.487 178.800,390.297 178.800 C 390.108 178.800,390.049 178.645,390.166 178.456 C 390.385 178.100,389.071 174.027,388.277 172.604 C 388.030 172.162,387.821 171.710,387.813 171.600 C 387.753 170.828,386.612 168.000,386.361 168.000 C 386.190 168.000,386.068 167.685,386.090 167.300 C 386.111 166.915,385.720 165.700,385.219 164.600 C 383.079 159.896,381.084 155.786,380.851 155.600 C 380.713 155.490,380.542 155.130,380.472 154.800 C 380.226 153.644,378.654 150.800,378.262 150.800 C 378.045 150.800,377.979 150.687,378.117 150.549 C 378.445 150.222,374.695 143.312,373.887 142.755 C 373.692 142.621,373.559 142.351,373.591 142.155 C 373.704 141.487,371.457 138.041,371.066 138.283 C 370.834 138.426,370.807 138.312,370.999 138.001 C 371.192 137.689,371.097 137.302,370.761 137.039 C 370.452 136.798,369.857 135.925,369.437 135.100 C 369.017 134.275,368.512 133.600,368.313 133.600 C 368.115 133.600,368.044 133.453,368.155 133.273 C 368.266 133.093,367.910 132.463,367.362 131.873 C 366.815 131.283,366.496 130.800,366.654 130.800 C 366.811 130.800,366.574 130.395,366.127 129.900 C 365.680 129.405,364.554 127.864,363.626 126.475 C 362.697 125.087,361.682 123.853,361.371 123.733 C 361.059 123.614,360.897 123.366,361.011 123.183 C 361.124 122.999,360.898 122.664,360.508 122.437 C 360.119 122.210,359.980 122.016,360.200 122.006 C 360.449 121.995,360.442 121.877,360.179 121.694 C 359.947 121.532,359.227 120.680,358.579 119.800 C 357.930 118.920,357.220 118.004,357.000 117.763 C 356.780 117.523,356.150 116.717,355.600 115.972 C 355.050 115.227,353.845 113.839,352.922 112.887 C 352.000 111.935,351.237 111.074,351.228 110.973 C 351.173 110.382,336.854 95.594,336.442 95.702 C 336.309 95.738,335.478 95.054,334.596 94.183 C 332.754 92.365,330.294 90.186,330.000 90.112 C 329.890 90.084,329.031 89.351,328.090 88.483 C 325.750 86.323,318.400 80.689,318.400 81.056 C 318.400 81.219,318.136 81.004,317.813 80.576 C 317.490 80.149,317.220 79.975,317.213 80.189 C 317.206 80.403,316.918 80.175,316.573 79.682 C 316.228 79.190,315.778 78.890,315.573 79.017 C 315.368 79.144,315.200 79.083,315.200 78.882 C 315.200 78.416,311.627 76.163,311.121 76.310 C 310.912 76.370,310.833 76.270,310.946 76.087 C 311.165 75.733,305.608 72.134,305.100 72.301 C 304.935 72.356,304.800 72.225,304.800 72.010 C 304.800 71.600,302.498 70.217,301.783 70.197 C 301.554 70.191,300.935 69.784,300.408 69.293 C 299.880 68.802,299.290 68.400,299.096 68.400 C 298.901 68.400,297.906 67.910,296.883 67.311 C 295.861 66.711,294.767 66.183,294.452 66.137 C 294.138 66.091,293.772 65.880,293.640 65.667 C 293.349 65.199,284.341 60.800,283.673 60.800 C 283.413 60.800,283.200 60.640,283.200 60.443 C 283.200 60.156,282.176 59.720,280.800 59.422 C 280.690 59.398,279.385 58.798,277.899 58.089 C 276.413 57.380,274.838 56.800,274.399 56.800 C 273.960 56.800,273.600 56.601,273.600 56.357 C 273.600 56.114,273.330 56.018,273.000 56.145 C 272.670 56.271,272.400 56.237,272.400 56.068 C 272.400 55.899,271.725 55.528,270.900 55.243 C 270.075 54.958,268.258 54.279,266.862 53.734 C 265.466 53.190,264.061 52.844,263.741 52.967 C 263.421 53.090,263.252 53.039,263.367 52.854 C 263.689 52.332,251.004 48.627,250.327 49.045 C 250.147 49.156,250.000 49.090,250.000 48.897 C 250.000 48.621,246.744 47.771,244.200 47.383 C 243.980 47.349,243.710 47.281,243.600 47.230 C 243.247 47.069,241.832 46.822,240.700 46.725 C 240.095 46.672,239.600 46.509,239.600 46.362 C 239.600 46.215,238.889 46.085,238.021 46.073 C 237.153 46.061,236.103 45.869,235.689 45.647 C 235.274 45.426,233.840 45.191,232.503 45.127 C 231.165 45.062,230.149 44.883,230.245 44.728 C 230.341 44.573,229.560 44.438,228.509 44.428 C 226.059 44.406,225.052 44.269,224.790 43.922 C 224.675 43.769,222.916 43.610,220.881 43.569 C 218.847 43.528,217.090 43.346,216.978 43.164 C 216.866 42.983,209.625 42.823,200.887 42.810 L 185.000 42.785 184.411 43.693 M83.204 79.900 C 82.729 80.505,82.457 80.730,82.600 80.400 C 82.805 79.925,82.749 79.933,82.330 80.439 C 82.038 80.790,81.224 81.375,80.520 81.739 C 79.816 82.102,79.056 82.715,78.832 83.100 C 78.608 83.485,78.416 83.620,78.406 83.400 C 78.394 83.142,78.284 83.145,78.094 83.410 C 77.932 83.636,76.990 84.440,76.000 85.196 C 75.010 85.952,73.840 86.938,73.400 87.386 C 72.960 87.834,72.083 88.534,71.451 88.941 C 70.313 89.675,68.780 91.009,65.288 94.300 C 64.296 95.235,63.406 96.000,63.312 96.000 C 62.728 96.000,49.693 109.693,47.400 112.714 C 47.180 113.004,46.370 113.927,45.600 114.766 C 43.110 117.478,39.230 122.400,39.211 122.872 C 39.205 123.021,38.573 123.808,37.807 124.620 C 37.040 125.433,36.491 126.223,36.585 126.376 C 36.680 126.529,36.423 126.895,36.015 127.189 C 35.596 127.491,35.374 127.987,35.504 128.328 C 35.651 128.711,35.571 128.829,35.285 128.653 C 35.017 128.487,34.562 128.905,34.161 129.687 C 33.791 130.409,33.378 131.090,33.244 131.200 C 32.630 131.703,28.071 138.847,26.997 140.988 C 26.339 142.302,25.569 143.626,25.287 143.930 C 24.556 144.718,23.128 147.600,23.468 147.600 C 23.625 147.600,23.446 147.825,23.072 148.100 C 22.697 148.375,22.308 149.030,22.208 149.555 C 22.107 150.080,21.769 150.800,21.457 151.155 C 20.732 151.979,18.312 156.800,18.623 156.800 C 18.752 156.800,18.575 157.083,18.229 157.428 C 17.884 157.773,17.483 158.538,17.339 159.128 C 17.195 159.718,16.916 160.306,16.718 160.436 C 16.521 160.566,16.331 161.061,16.295 161.536 C 16.259 162.011,16.077 162.400,15.891 162.400 C 15.705 162.400,15.664 162.580,15.800 162.800 C 15.936 163.020,15.846 163.200,15.600 163.200 C 15.354 163.200,15.264 163.380,15.400 163.600 C 15.536 163.820,15.457 164.000,15.224 164.000 C 14.991 164.000,14.800 164.324,14.800 164.720 C 14.800 165.116,14.625 165.615,14.411 165.829 C 14.198 166.042,13.954 166.573,13.870 167.009 C 13.786 167.444,13.312 168.680,12.815 169.756 C 12.319 170.832,11.883 171.912,11.847 172.156 C 11.771 172.667,10.897 175.020,10.342 176.207 C 10.134 176.651,9.934 177.416,9.897 177.907 C 9.860 178.398,9.667 178.800,9.468 178.800 C 9.269 178.800,9.201 179.160,9.316 179.600 C 9.431 180.040,9.377 180.400,9.196 180.400 C 9.015 180.400,8.478 181.705,8.003 183.300 C 7.528 184.895,6.988 186.680,6.802 187.266 C 6.617 187.852,6.571 188.437,6.699 188.566 C 6.828 188.695,6.748 188.800,6.521 188.800 C 6.295 188.800,6.135 189.205,6.166 189.700 C 6.198 190.195,6.079 190.703,5.902 190.830 C 5.725 190.956,5.510 191.615,5.424 192.293 C 5.338 192.971,5.066 193.903,4.820 194.363 C 4.573 194.823,4.456 195.200,4.558 195.200 C 4.660 195.200,4.566 195.785,4.349 196.500 C 4.131 197.215,3.867 198.250,3.761 198.800 C 3.655 199.350,3.490 200.070,3.394 200.400 C 3.298 200.730,3.107 201.720,2.970 202.600 C 2.833 203.480,2.664 204.294,2.593 204.408 C 2.472 204.607,1.963 207.528,1.827 208.807 C 1.791 209.141,1.653 209.591,1.519 209.808 C 1.385 210.025,1.303 210.950,1.337 211.863 C 1.372 212.777,1.265 213.441,1.100 213.338 C 0.935 213.236,0.771 213.748,0.735 214.476 C 0.699 215.204,0.586 216.520,0.483 217.400 C 0.381 218.280,0.276 229.890,0.249 243.200 C 0.205 264.905,0.366 271.432,1.012 274.152 C 1.123 274.619,1.290 275.540,1.383 276.200 C 1.476 276.860,1.744 278.480,1.978 279.800 C 2.212 281.120,2.548 283.017,2.725 284.015 C 2.902 285.013,3.212 286.093,3.412 286.415 C 3.613 286.737,3.818 287.540,3.867 288.200 C 3.981 289.741,4.627 292.700,5.145 294.059 C 5.367 294.641,5.440 295.226,5.308 295.359 C 5.175 295.491,5.277 295.600,5.533 295.600 C 5.790 295.600,5.963 295.735,5.917 295.900 C 5.735 296.561,6.433 299.600,6.767 299.600 C 6.964 299.600,7.031 299.960,6.916 300.400 C 6.799 300.847,6.904 301.200,7.153 301.200 C 7.399 301.200,7.560 301.335,7.510 301.500 C 7.358 302.008,8.430 305.736,9.072 306.928 C 9.406 307.549,9.765 308.629,9.871 309.328 C 9.976 310.028,10.326 311.010,10.648 311.511 C 10.970 312.013,11.125 312.598,10.993 312.811 C 10.861 313.025,10.954 313.200,11.200 313.200 C 11.446 313.200,11.536 313.380,11.400 313.600 C 11.264 313.820,11.343 314.000,11.576 314.000 C 11.809 314.000,11.979 314.135,11.953 314.300 C 11.927 314.465,11.941 314.690,11.986 314.800 C 12.030 314.910,12.153 315.536,12.259 316.190 C 12.365 316.845,12.596 317.565,12.774 317.790 C 12.951 318.016,13.313 318.875,13.579 319.700 C 13.845 320.525,14.258 321.200,14.498 321.200 C 14.737 321.200,14.820 321.314,14.681 321.453 C 14.542 321.592,14.638 322.087,14.895 322.553 C 15.151 323.019,15.419 323.752,15.491 324.183 C 15.562 324.613,15.811 325.083,16.044 325.227 C 16.277 325.372,16.446 325.608,16.418 325.752 C 16.306 326.336,19.873 333.719,23.443 340.291 C 25.052 343.253,25.079 343.067,25.363 327.000 C 25.976 292.382,27.765 276.583,33.269 257.200 C 46.446 210.790,82.689 169.250,126.800 149.998 C 131.726 147.848,131.532 148.269,129.689 143.736 C 128.031 139.656,127.210 136.963,126.479 133.200 C 126.244 131.990,125.860 130.041,125.626 128.869 C 125.392 127.698,125.200 122.820,125.200 118.031 L 125.200 109.322 118.442 109.048 C 98.011 108.219,90.234 103.504,85.656 89.172 C 85.405 88.386,85.200 86.016,85.200 83.904 C 85.200 78.568,84.830 77.827,83.204 79.900 " stroke="none" fill="#34a4fc" fill-rule="evenodd"></path><path id="path5" d="M336.955 274.252 C 327.129 291.053,306.975 300.404,284.841 298.431 C 278.856 297.898,274.778 297.071,264.906 294.392 C 208.052 278.960,159.103 284.046,115.400 309.927 C 109.768 313.262,104.606 316.796,92.200 325.807 C 81.194 333.803,80.400 334.319,80.400 333.483 C 80.400 332.936,82.665 325.685,90.566 300.941 C 94.897 287.379,95.056 286.800,94.449 286.800 C 93.621 286.800,60.198 322.794,60.070 323.823 C 59.062 331.957,70.498 360.793,81.249 377.228 C 83.202 380.214,84.800 382.959,84.800 383.328 C 84.800 383.698,85.106 384.000,85.480 384.000 C 86.009 384.000,86.053 383.893,85.680 383.520 C 85.416 383.256,85.200 382.792,85.200 382.488 C 85.200 382.185,84.003 380.196,82.539 378.068 C 72.686 363.742,65.181 346.209,61.411 328.707 C 60.855 326.126,60.400 323.913,60.400 323.791 C 60.400 323.519,62.352 321.417,78.211 304.600 C 85.058 297.340,91.216 290.770,91.897 290.000 C 93.938 287.691,93.835 288.825,91.294 296.693 C 88.839 304.290,84.124 319.035,81.923 326.000 C 81.262 328.090,80.469 330.571,80.161 331.514 C 78.981 335.121,79.704 335.666,82.752 333.467 C 83.769 332.734,88.290 329.442,92.800 326.153 C 108.246 314.886,115.672 310.089,125.200 305.225 C 160.349 287.280,196.601 282.378,240.800 289.593 C 246.402 290.507,257.019 292.905,264.649 294.978 C 282.994 299.965,293.686 300.605,306.034 297.457 C 319.456 294.035,331.576 285.204,337.628 274.436 C 339.048 271.909,339.196 272.303,340.803 282.883 C 345.022 310.671,337.409 353.570,323.981 377.675 C 322.672 380.026,321.600 382.195,321.600 382.495 C 321.600 382.795,321.384 383.256,321.120 383.520 C 320.747 383.893,320.791 384.000,321.320 384.000 C 321.694 384.000,322.000 383.759,322.000 383.463 C 322.000 383.168,323.678 379.613,325.728 375.563 C 340.303 346.778,346.128 306.325,340.200 275.074 C 339.870 273.335,339.600 271.842,339.600 271.756 C 339.600 270.810,338.189 272.141,336.955 274.252 M152.800 327.595 C 140.763 329.171,135.736 344.781,144.573 353.139 C 151.025 359.241,160.046 359.013,165.959 352.598 C 175.525 342.221,166.858 325.754,152.800 327.595 M242.943 327.627 C 230.484 329.293,225.605 344.898,234.872 353.439 C 244.831 362.618,260.610 355.209,259.927 341.674 C 259.476 332.746,251.848 326.437,242.943 327.627 M159.365 328.818 C 169.635 331.990,172.766 345.599,164.896 352.853 C 157.913 359.290,146.258 357.329,142.200 349.036 C 136.513 337.412,147.041 325.012,159.365 328.818 M251.432 329.586 C 264.988 336.259,260.296 356.598,245.200 356.600 C 228.736 356.601,225.090 333.923,240.722 328.745 C 244.066 327.638,248.121 327.956,251.432 329.586 " stroke="none" fill="#c0c0c0" fill-rule="evenodd"></path><path id="path6" d="M183.913 43.900 C 182.474 45.548,181.515 55.665,182.686 56.843 C 183.067 57.227,183.080 56.998,182.743 55.778 C 182.017 53.150,183.053 45.429,184.336 43.900 C 184.660 43.515,184.834 43.200,184.724 43.200 C 184.614 43.200,184.249 43.515,183.913 43.900 M183.800 57.400 C 184.020 57.475,186.360 57.612,189.000 57.704 C 191.640 57.795,193.350 57.738,192.800 57.575 C 191.840 57.292,182.979 57.119,183.800 57.400 M195.400 58.400 C 196.060 58.568,196.960 58.714,197.400 58.725 L 198.200 58.744 197.400 58.400 C 196.960 58.211,196.060 58.065,195.400 58.075 L 194.200 58.095 195.400 58.400 M199.200 59.200 C 200.742 59.694,201.564 59.694,200.800 59.200 C 200.470 58.987,199.750 58.827,199.200 58.846 L 198.200 58.880 199.200 59.200 M204.600 60.577 C 227.351 67.121,242.635 81.928,249.217 103.800 C 249.614 105.120,249.953 105.909,249.969 105.553 C 250.230 100.033,241.516 84.700,233.613 76.771 C 225.203 68.334,208.853 59.402,202.234 59.629 C 201.775 59.644,202.840 60.071,204.600 60.577 M85.269 83.772 C 85.201 87.686,85.375 88.645,86.867 92.600 C 89.908 100.656,99.038 107.609,107.346 108.195 L 109.800 108.368 107.294 107.975 C 94.977 106.044,86.390 96.628,85.613 84.200 L 85.338 79.800 85.269 83.772 M335.406 94.912 C 335.792 95.524,336.209 95.924,336.332 95.801 C 336.455 95.678,336.139 95.178,335.630 94.689 L 334.704 93.800 335.406 94.912 M250.269 108.000 C 250.384 108.990,250.639 110.430,250.836 111.200 C 252.320 116.982,250.936 131.996,248.153 140.313 C 246.818 144.305,246.678 145.600,247.583 145.600 C 249.995 145.600,268.426 153.860,276.800 158.694 C 316.634 181.687,347.350 222.723,356.611 265.322 C 356.985 267.039,357.377 268.356,357.483 268.250 C 357.739 267.995,356.652 263.231,355.145 258.000 C 344.153 219.842,319.353 186.127,285.800 163.728 C 275.256 156.689,258.263 148.329,248.900 145.574 C 246.858 144.973,246.875 145.243,248.566 140.241 C 249.317 138.018,250.122 135.300,250.354 134.200 C 250.587 133.100,250.962 131.355,251.189 130.323 C 251.738 127.817,251.716 112.912,251.159 110.506 C 250.290 106.747,250.045 106.055,250.269 108.000 M114.000 108.820 C 116.090 108.980,119.240 109.101,121.000 109.089 L 124.200 109.068 120.200 108.781 C 118.000 108.623,114.850 108.502,113.200 108.512 L 110.200 108.529 114.000 108.820 M125.200 112.200 C 125.200 113.923,125.276 115.257,125.369 115.164 C 125.659 114.874,125.748 109.614,125.467 109.333 C 125.320 109.187,125.200 110.477,125.200 112.200 M46.000 113.872 C 45.113 114.810,45.097 114.878,45.853 114.476 C 46.322 114.226,46.811 113.747,46.940 113.411 C 47.254 112.594,47.168 112.636,46.000 113.872 M125.240 124.633 C 125.262 126.155,125.421 127.850,125.594 128.400 C 125.766 128.950,125.813 127.780,125.698 125.800 C 125.447 121.465,125.185 120.798,125.240 124.633 M126.075 131.000 C 126.065 131.660,126.211 132.560,126.400 133.000 L 126.744 133.800 126.725 133.000 C 126.714 132.560,126.568 131.660,126.400 131.000 L 126.095 129.800 126.075 131.000 M126.821 134.538 C 126.787 135.720,127.962 139.488,129.689 143.736 C 131.532 148.269,131.726 147.848,126.800 149.998 C 86.063 167.777,50.597 206.088,36.243 247.819 C 32.019 260.100,27.426 280.464,27.641 285.958 C 27.663 286.531,28.024 284.750,28.443 282.000 C 29.088 277.764,30.403 270.750,31.591 265.200 C 40.565 223.299,70.157 183.296,109.911 159.323 C 115.048 156.226,126.887 150.153,129.750 149.147 C 131.860 148.406,131.889 148.119,130.266 144.104 C 129.486 142.177,128.397 139.070,127.846 137.200 C 127.294 135.330,126.833 134.132,126.821 134.538 M21.337 150.604 C 21.083 151.152,21.037 151.501,21.235 151.378 C 21.763 151.052,22.482 149.599,22.114 149.603 C 21.941 149.605,21.592 150.055,21.337 150.604 M357.614 269.233 C 357.649 270.604,359.138 278.080,359.167 277.031 C 359.201 275.837,358.051 269.135,357.760 268.833 C 357.672 268.742,357.606 268.922,357.614 269.233 M359.477 281.200 C 359.603 282.630,359.772 283.875,359.853 283.967 C 360.142 284.295,359.914 280.580,359.584 279.600 C 359.374 278.973,359.334 279.570,359.477 281.200 M360.200 300.400 C 360.200 308.650,360.322 314.590,360.470 313.600 C 360.619 312.610,360.741 306.670,360.741 300.400 C 360.741 294.130,360.619 288.190,360.470 287.200 C 360.322 286.210,360.200 292.150,360.200 300.400 M26.994 290.538 C 26.838 292.405,26.793 294.173,26.893 294.466 C 26.993 294.760,27.207 293.320,27.370 291.266 C 27.532 289.212,27.578 287.445,27.471 287.338 C 27.364 287.231,27.149 288.671,26.994 290.538 M26.260 298.890 C 26.121 300.051,26.032 302.440,26.062 304.200 C 26.109 306.960,26.161 306.687,26.446 302.221 C 26.789 296.842,26.699 295.237,26.260 298.890 M25.432 317.700 C 25.071 326.931,24.954 342.435,25.248 341.873 C 25.497 341.399,26.053 311.200,25.813 311.200 C 25.743 311.200,25.571 314.125,25.432 317.700 M359.676 318.844 C 359.634 319.858,359.513 321.568,359.406 322.644 L 359.212 324.600 359.622 323.000 C 359.847 322.120,359.968 320.410,359.891 319.200 C 359.755 317.056,359.749 317.047,359.676 318.844 M358.612 328.212 C 358.455 329.888,358.416 331.350,358.526 331.460 C 358.636 331.570,358.855 330.288,359.012 328.612 C 359.169 326.936,359.207 325.474,359.097 325.364 C 358.987 325.254,358.769 326.536,358.612 328.212 M357.273 337.000 C 354.777 351.237,350.189 366.085,344.435 378.540 C 342.883 381.900,342.386 384.000,343.145 384.000 C 343.334 384.000,343.412 383.595,343.317 383.100 C 343.212 382.553,344.021 380.342,345.372 377.476 C 346.598 374.879,347.600 372.582,347.600 372.371 C 347.600 372.161,347.767 371.677,347.970 371.295 C 351.079 365.464,358.973 335.819,358.313 332.454 C 358.242 332.094,357.774 334.140,357.273 337.000 " stroke="none" fill="#3495ed" fill-rule="evenodd"></path><path id="path7" d="M183.482 43.827 C 182.255 45.055,181.597 47.686,181.341 52.400 C 181.053 57.715,181.032 57.697,187.811 58.272 C 198.253 59.158,207.567 61.618,216.292 65.794 C 244.362 79.232,257.872 112.555,246.981 141.490 C 246.441 142.923,246.000 144.438,246.000 144.856 C 246.000 145.717,245.717 145.580,253.800 148.629 C 306.059 168.341,346.592 216.560,357.179 271.608 C 363.423 304.078,358.027 347.623,344.032 377.707 C 342.960 380.012,342.416 381.726,342.446 382.707 L 342.492 384.200 342.787 382.800 C 342.949 382.030,343.753 379.960,344.574 378.200 C 358.666 347.974,364.225 303.772,357.979 271.600 C 346.689 213.449,304.121 164.911,247.300 145.397 C 246.587 145.152,246.643 144.827,248.177 140.242 C 251.024 131.731,252.232 117.985,250.771 110.731 C 246.487 89.471,234.623 73.595,216.600 65.006 C 208.038 60.925,194.848 57.600,187.224 57.600 C 182.356 57.600,182.192 57.440,182.231 52.730 C 182.267 48.341,182.975 44.956,184.119 43.700 C 185.247 42.462,184.747 42.562,183.482 43.827 M85.044 79.000 C 85.214 79.440,85.475 81.780,85.624 84.200 C 86.075 91.503,87.903 95.603,92.953 100.637 C 98.771 106.439,102.703 107.782,116.104 108.547 C 126.845 109.161,125.906 108.689,125.500 113.271 C 124.627 123.108,126.391 134.515,130.266 144.104 C 131.889 148.119,131.860 148.406,129.750 149.147 C 126.887 150.153,115.048 156.226,109.911 159.323 C 70.166 183.290,40.500 223.395,31.593 265.200 C 27.362 285.060,26.206 296.967,25.748 325.400 C 25.607 334.200,25.320 341.731,25.112 342.136 C 24.805 342.733,24.871 342.845,25.467 342.731 C 26.158 342.598,26.216 341.641,26.479 325.838 C 27.243 279.964,32.227 254.969,45.946 228.200 C 63.232 194.471,95.513 164.233,129.203 150.211 C 133.091 148.593,133.057 148.672,131.439 144.891 C 127.233 135.066,125.346 123.726,126.263 113.800 C 126.794 108.044,127.587 108.525,116.387 107.808 C 111.220 107.477,105.914 106.931,104.596 106.595 C 93.689 103.810,86.000 93.744,86.000 82.250 C 86.000 80.567,85.794 79.500,85.367 78.976 C 84.744 78.211,84.739 78.212,85.044 79.000 M56.400 102.200 C 54.761 103.850,53.510 105.200,53.620 105.200 C 53.730 105.200,55.161 103.850,56.800 102.200 C 58.439 100.550,59.690 99.200,59.580 99.200 C 59.470 99.200,58.039 100.550,56.400 102.200 M344.600 103.600 C 345.683 104.700,346.660 105.600,346.770 105.600 C 346.880 105.600,346.083 104.700,345.000 103.600 C 343.917 102.500,342.940 101.600,342.830 101.600 C 342.720 101.600,343.517 102.500,344.600 103.600 " stroke="none" fill="#3484cc" fill-rule="evenodd"></path><path id="path8" d="" stroke="none" fill="#68d0e4" fill-rule="evenodd"></path></g></svg>