<svg id="svg" xmlns="http://www.w3.org/2000/svg" xmlns:xlink="http://www.w3.org/1999/xlink" width="400" height="400" viewBox="0, 0, 400,400"><g id="svgg"><path id="path0" d="M75.000 200.000 L 75.000 294.336 200.098 294.336 L 325.195 294.336 325.195 200.000 L 325.195 105.664 200.098 105.664 L 75.000 105.664 75.000 200.000 M290.316 129.541 C 250.936 169.362,207.505 212.880,206.608 213.415 C 201.386 216.532,196.067 215.450,190.814 210.201 C 188.298 207.688,110.726 129.102,106.566 124.854 L 104.989 123.242 200.767 123.242 L 296.545 123.242 290.316 129.541 M132.551 176.367 C 145.125 189.097,155.410 199.600,155.406 199.707 C 155.400 199.875,132.337 223.502,101.518 254.913 L 92.578 264.024 92.578 199.993 L 92.578 135.961 101.133 144.592 C 105.839 149.339,119.977 163.638,132.551 176.367 M307.374 232.202 L 307.324 263.850 276.208 231.990 L 245.091 200.130 259.215 185.954 C 277.721 167.382,300.721 144.230,304.401 140.471 L 307.324 137.484 307.374 169.019 C 307.401 186.364,307.401 214.796,307.374 232.202 M183.972 227.729 C 193.072 233.701,204.286 234.378,213.965 229.541 C 217.271 227.888,218.308 227.018,225.684 219.712 L 232.715 212.747 260.059 240.751 C 275.098 256.153,289.146 270.555,291.277 272.756 L 295.152 276.758 200.037 276.758 L 104.921 276.758 105.439 276.208 C 105.724 275.906,119.923 261.398,136.992 243.968 L 168.027 212.278 175.078 219.399 C 181.038 225.417,182.414 226.706,183.972 227.729 " stroke="none" fill="#000000" fill-rule="evenodd"></path></g></svg>