<svg id="svg" xmlns="http://www.w3.org/2000/svg" xmlns:xlink="http://www.w3.org/1999/xlink" width="400" height="429.66666666666663" viewBox="0, 0, 400,429.66666666666663" version="1.1"><g id="svgg"><path id="path0" d="M133.000 73.051 C 102.364 74.535,79.794 95.437,73.847 127.833 C 72.140 137.138,72.167 135.964,72.167 200.667 L 72.167 261.167 94.417 261.252 L 116.667 261.338 116.667 205.884 C 116.667 150.369,116.767 144.771,117.852 139.550 C 121.018 124.317,130.233 116.916,146.000 116.944 C 163.765 116.975,173.489 125.719,177.202 145.000 C 177.760 147.903,177.826 151.083,177.989 183.167 L 178.167 218.167 200.333 218.167 L 222.500 218.167 222.683 183.667 C 222.846 152.846,222.928 148.800,223.451 145.726 C 226.530 127.612,235.427 118.407,251.188 117.028 C 268.143 115.546,279.344 123.237,282.674 138.647 C 283.961 144.602,284.000 146.566,284.000 204.654 L 284.000 261.333 306.333 261.333 L 328.667 261.333 328.664 201.750 C 328.661 142.508,328.596 138.598,327.500 131.238 C 323.889 107.001,311.707 88.781,292.833 79.389 C 273.392 69.716,245.919 70.880,228.408 82.121 C 219.711 87.703,215.245 92.929,206.248 108.048 C 203.099 113.338,200.443 117.660,200.345 117.651 C 200.247 117.643,197.618 113.330,194.503 108.068 C 187.858 96.844,185.371 93.410,180.453 88.666 C 168.458 77.100,153.185 72.074,133.000 73.051 " stroke="none" fill="#fbfbfb" fill-rule="evenodd"></path><path id="path1" d="M180.833 0.200 C 179.550 0.262,174.900 0.473,170.500 0.670 C 114.782 3.161,72.488 12.028,52.586 25.390 C 22.061 45.885,3.292 83.203,0.309 129.333 C -0.165 136.669,0.094 219.207,0.623 229.500 C 2.823 272.242,6.484 298.892,13.517 323.333 C 29.353 378.374,57.674 407.662,106.829 419.830 C 157.992 432.497,208.315 433.092,250.500 421.529 C 262.634 418.203,276.656 412.872,276.672 411.579 C 276.689 410.133,275.280 379.497,275.130 378.058 C 274.976 376.573,274.855 376.319,274.390 376.502 C 274.084 376.623,270.952 377.452,267.431 378.345 C 238.169 385.767,208.478 387.766,176.333 384.476 C 134.708 380.216,116.529 362.892,114.483 325.533 L 114.247 321.233 115.040 321.448 C 129.535 325.378,165.146 330.376,192.667 332.342 C 216.951 334.078,255.471 332.009,289.500 327.142 C 338.279 320.166,383.837 290.264,391.807 259.993 C 394.771 248.736,398.305 217.680,399.676 190.833 C 400.420 176.277,399.957 119.082,399.051 113.500 C 392.579 73.642,374.562 42.649,347.516 24.852 C 327.909 11.949,289.133 3.870,231.333 0.642 C 225.441 0.313,185.705 -0.035,180.833 0.200 M146.500 73.361 C 160.048 74.776,171.316 79.856,180.453 88.666 C 185.371 93.410,187.858 96.844,194.503 108.068 C 197.618 113.330,200.247 117.643,200.345 117.651 C 200.443 117.660,203.099 113.338,206.248 108.048 C 215.245 92.929,219.711 87.703,228.408 82.121 C 245.919 70.880,273.392 69.716,292.833 79.389 C 311.707 88.781,323.889 107.001,327.500 131.238 C 328.596 138.598,328.661 142.508,328.664 201.750 L 328.667 261.333 306.333 261.333 L 284.000 261.333 284.000 204.654 C 284.000 146.566,283.961 144.602,282.674 138.647 C 279.344 123.237,268.143 115.546,251.188 117.028 C 235.427 118.407,226.530 127.612,223.451 145.726 C 222.928 148.800,222.846 152.846,222.683 183.667 L 222.500 218.167 200.333 218.167 L 178.167 218.167 177.989 183.167 C 177.826 151.083,177.760 147.903,177.202 145.000 C 173.489 125.719,163.765 116.975,146.000 116.944 C 130.233 116.916,121.018 124.317,117.852 139.550 C 116.767 144.771,116.667 150.369,116.667 205.884 L 116.667 261.338 94.417 261.252 L 72.167 261.167 72.167 200.667 C 72.167 135.964,72.140 137.138,73.847 127.833 C 80.699 90.506,108.816 69.424,146.500 73.361 " stroke="none" fill="#2494dc" fill-rule="evenodd"></path></g></svg>