<svg id="svg" xmlns="http://www.w3.org/2000/svg" xmlns:xlink="http://www.w3.org/1999/xlink" width="400" height="172" viewBox="0, 0, 400,172" version="1.1"><g id="svgg"><path id="path0" d="M0.000 86.022 L 0.000 172.043 9.198 172.043 C 19.994 172.043,18.753 172.434,18.753 169.035 C 18.753 165.262,19.206 165.511,12.344 165.508 L 7.226 165.505 7.226 86.022 L 7.226 6.538 12.490 6.538 L 17.754 6.538 18.254 6.003 L 18.753 5.469 18.753 3.067 C 18.753 -0.401,20.001 0.000,9.198 0.000 L 0.000 0.000 0.000 86.022 M381.706 0.115 C 381.643 0.178,381.591 1.488,381.591 3.027 L 381.591 5.824 382.045 6.181 C 382.481 6.524,382.697 6.538,387.808 6.538 L 393.118 6.538 393.118 86.022 L 393.118 165.505 387.879 165.505 C 380.983 165.505,381.552 165.161,381.628 169.290 L 381.677 171.957 390.839 172.002 L 400.000 172.046 400.000 86.023 L 400.000 0.000 390.910 0.000 C 385.911 0.000,381.769 0.052,381.706 0.115 M17.168 2.911 C 17.204 4.229,17.158 4.740,16.996 4.844 C 16.874 4.921,14.286 4.985,11.244 4.987 C 6.362 4.989,5.702 5.021,5.610 5.261 C 5.371 5.885,5.495 166.659,5.735 166.858 C 5.890 166.987,7.777 167.064,11.542 167.094 L 17.118 167.140 17.118 169.032 L 17.118 170.925 9.118 170.925 L 1.118 170.925 1.075 85.977 L 1.032 1.029 9.075 1.074 L 17.118 1.118 17.168 2.911 M399.097 85.978 L 399.054 170.925 391.054 170.925 L 383.054 170.925 383.054 169.032 L 383.054 167.140 388.817 167.054 L 394.581 166.968 394.581 86.022 L 394.581 5.075 388.817 4.989 L 383.054 4.903 383.005 2.968 L 382.956 1.032 391.048 1.032 L 399.140 1.032 399.097 85.978 M287.340 31.775 C 286.450 32.213,286.438 32.340,286.489 40.350 L 286.538 47.789 286.968 48.147 C 287.391 48.499,287.541 48.505,296.372 48.510 L 305.346 48.516 305.791 47.987 L 306.237 47.457 306.237 40.167 C 306.237 32.251,306.231 32.200,305.283 31.750 C 304.412 31.337,288.183 31.359,287.340 31.775 M304.602 40.086 L 304.602 46.882 296.301 46.926 L 288.000 46.971 288.000 40.202 C 288.000 36.480,288.052 33.381,288.116 33.317 C 288.180 33.253,291.916 33.221,296.417 33.246 L 304.602 33.290 304.602 40.086 M204.469 36.713 C 203.530 37.123,203.527 37.151,203.527 46.288 L 203.527 54.710 199.128 54.710 C 192.957 54.710,193.561 53.940,193.554 61.818 C 193.547 69.886,192.988 69.161,199.215 69.161 L 203.522 69.161 203.587 87.699 C 203.648 105.271,203.692 107.307,204.033 108.129 C 204.112 108.318,204.275 108.822,204.395 109.247 C 205.488 113.100,208.808 116.324,213.075 117.679 C 213.454 117.799,213.918 117.959,214.108 118.034 C 214.297 118.109,214.723 118.218,215.054 118.276 C 215.385 118.334,216.082 118.456,216.602 118.548 C 222.352 119.563,234.064 119.187,235.125 117.953 L 235.527 117.486 235.527 110.465 C 235.527 103.547,235.521 103.437,235.158 102.975 L 234.789 102.506 233.136 102.623 C 230.577 102.804,226.741 102.790,225.978 102.597 C 225.376 102.445,224.172 101.914,224.172 101.800 C 224.172 101.777,224.017 101.335,223.828 100.817 C 223.493 99.902,223.484 99.447,223.484 84.519 L 223.484 69.161 228.791 69.161 C 234.432 69.161,234.929 69.096,235.356 68.299 C 235.460 68.104,235.527 65.570,235.527 61.805 L 235.527 55.630 235.083 55.213 L 234.639 54.796 229.062 54.746 L 223.484 54.696 223.483 46.316 C 223.483 37.050,223.485 37.071,222.354 36.641 C 221.632 36.366,205.112 36.433,204.469 36.713 M221.491 38.126 C 221.735 38.219,221.764 39.166,221.766 47.029 C 221.768 51.868,221.830 55.924,221.904 56.041 C 222.006 56.201,223.487 56.265,227.966 56.299 L 233.892 56.344 233.938 61.892 L 233.983 67.441 228.066 67.441 C 223.154 67.441,222.115 67.482,221.946 67.686 C 221.576 68.132,221.786 99.588,222.167 100.903 C 223.097 104.109,225.757 104.914,232.903 104.152 L 233.978 104.037 233.978 110.417 C 233.978 113.926,233.912 116.838,233.832 116.888 C 232.953 117.431,220.782 117.666,217.892 117.195 C 210.799 116.040,207.031 113.188,205.571 107.871 L 205.170 106.409 205.123 87.312 C 205.097 76.809,205.036 68.041,204.986 67.828 L 204.897 67.441 200.015 67.441 C 195.723 67.441,195.121 67.408,195.029 67.169 C 194.799 66.569,194.914 56.653,195.154 56.454 C 195.307 56.327,196.994 56.248,200.186 56.218 L 204.989 56.172 205.034 47.328 C 205.065 41.145,205.136 38.414,205.270 38.252 C 205.470 38.011,220.880 37.891,221.491 38.126 M67.527 53.107 C 62.568 53.288,57.510 55.373,53.457 58.908 L 52.129 60.067 52.129 58.054 C 52.129 54.441,52.836 54.673,42.035 54.744 L 34.092 54.796 33.648 55.213 L 33.204 55.630 33.204 86.621 L 33.204 117.613 33.687 118.075 L 34.169 118.538 42.988 118.538 C 48.977 118.538,51.919 118.478,52.155 118.352 C 53.003 117.898,52.988 118.220,53.005 99.489 C 53.024 77.841,53.039 77.565,54.367 74.879 C 55.534 72.519,57.568 70.673,59.699 70.043 C 60.125 69.917,60.651 69.744,60.868 69.660 C 61.086 69.575,62.147 69.505,63.226 69.505 C 64.305 69.505,65.366 69.575,65.583 69.660 C 65.801 69.744,66.319 69.915,66.735 70.040 C 68.394 70.535,70.523 73.276,70.535 74.933 C 70.536 75.127,70.610 75.360,70.699 75.449 C 70.996 75.752,71.068 79.140,71.190 98.553 L 71.312 117.880 71.718 118.209 C 72.281 118.665,89.633 118.726,90.278 118.274 C 90.994 117.773,91.008 117.403,91.028 99.183 C 91.054 75.333,91.149 74.557,94.389 71.582 C 96.308 69.821,101.008 68.800,103.261 69.655 C 103.478 69.738,103.966 69.903,104.344 70.022 C 106.333 70.648,108.056 72.804,108.604 75.355 C 108.976 77.082,109.094 81.785,109.211 99.413 L 109.333 117.880 109.739 118.209 C 110.128 118.523,110.540 118.538,119.032 118.538 L 127.917 118.538 128.390 118.099 L 128.863 117.661 128.801 94.745 C 128.759 79.209,128.679 71.495,128.552 70.796 C 128.188 68.790,128.043 68.201,127.581 66.839 C 126.554 63.811,124.534 60.509,122.630 58.747 C 121.018 57.254,117.093 54.882,116.236 54.882 C 116.094 54.882,115.929 54.804,115.871 54.710 C 115.812 54.615,115.580 54.538,115.355 54.538 C 115.129 54.538,114.897 54.460,114.839 54.366 C 114.780 54.271,114.547 54.194,114.321 54.194 C 114.094 54.194,113.731 54.124,113.513 54.038 C 113.124 53.885,112.314 53.718,110.108 53.335 C 108.723 53.095,102.134 53.073,101.226 53.305 C 100.859 53.399,100.133 53.565,99.613 53.675 C 95.982 54.441,91.610 57.061,88.516 60.324 C 87.077 61.842,87.225 61.821,86.425 60.616 C 85.454 59.153,84.111 57.783,82.713 56.828 C 78.681 54.072,73.805 52.878,67.527 53.107 M160.516 53.186 C 157.571 53.324,154.764 53.682,152.602 54.197 C 152.176 54.298,151.557 54.445,151.226 54.523 C 144.287 56.156,137.972 60.971,135.462 66.539 C 134.626 68.394,134.581 68.505,134.454 68.989 C 134.393 69.226,134.263 69.690,134.166 70.022 C 133.729 71.518,133.379 74.828,133.576 75.611 C 133.811 76.548,133.931 76.559,143.452 76.559 C 153.029 76.559,153.118 76.550,153.118 75.525 C 153.118 75.348,153.196 75.155,153.290 75.097 C 153.385 75.038,153.462 74.666,153.462 74.269 C 153.462 72.747,154.828 70.025,156.013 69.184 C 156.840 68.597,157.767 68.129,158.103 68.129 C 158.283 68.129,158.473 68.062,158.524 67.980 C 158.887 67.392,166.404 67.370,167.828 67.953 C 170.075 68.873,170.881 69.630,171.545 71.447 C 172.636 74.432,171.692 76.694,168.886 77.819 C 166.643 78.719,165.362 78.950,158.624 79.667 C 157.055 79.834,156.506 79.908,153.634 80.341 C 151.064 80.728,148.613 81.242,146.999 81.732 C 146.708 81.820,146.339 81.892,146.179 81.892 C 146.019 81.892,145.753 81.960,145.589 82.043 C 145.425 82.126,144.981 82.286,144.602 82.399 C 144.224 82.511,143.740 82.676,143.527 82.764 C 143.314 82.852,142.966 82.993,142.753 83.076 C 135.390 85.960,131.699 91.745,131.709 100.387 C 131.720 111.349,137.255 117.584,148.903 119.758 C 150.488 120.053,157.410 120.056,159.054 119.762 C 162.218 119.196,162.438 119.149,164.172 118.687 C 167.007 117.930,171.053 115.997,172.503 114.706 C 172.955 114.304,173.247 114.440,173.247 115.052 C 173.247 115.512,173.514 116.494,173.785 117.030 C 173.868 117.194,173.935 117.440,173.935 117.577 C 173.935 118.522,174.101 118.538,183.859 118.538 L 192.876 118.538 193.291 118.122 C 193.958 117.455,193.994 116.939,193.456 115.740 C 192.786 114.248,192.488 113.028,192.143 110.366 C 192.036 109.543,191.911 101.101,191.832 89.376 C 191.750 77.221,191.631 69.338,191.520 68.645 C 191.293 67.237,191.151 66.587,190.975 66.151 C 190.898 65.961,190.631 65.299,190.381 64.679 C 189.720 63.043,188.671 61.513,187.192 60.029 C 185.345 58.176,183.730 57.133,180.473 55.690 C 179.201 55.127,176.542 54.336,174.882 54.027 C 174.314 53.922,173.519 53.761,173.116 53.670 C 172.712 53.580,172.000 53.505,171.533 53.505 C 171.066 53.505,170.312 53.433,169.858 53.345 C 168.750 53.130,163.602 53.042,160.516 53.186 M275.957 53.109 C 274.780 53.154,272.727 53.448,272.000 53.675 C 271.763 53.749,271.222 53.909,270.796 54.031 C 270.370 54.154,269.948 54.317,269.858 54.396 C 269.768 54.474,269.575 54.538,269.428 54.539 C 268.201 54.546,263.602 57.565,261.290 59.881 L 259.441 61.734 259.441 58.920 C 259.441 54.328,260.323 54.710,249.710 54.710 C 240.899 54.710,241.005 54.697,240.512 55.784 C 240.057 56.787,239.975 116.304,240.428 117.387 C 240.930 118.590,240.484 118.538,250.265 118.538 L 259.078 118.538 259.560 118.122 L 260.043 117.707 260.154 102.252 C 260.267 86.483,260.345 84.650,261.016 82.151 C 261.219 81.392,261.255 81.294,261.939 79.603 C 262.805 77.462,265.018 74.694,266.435 73.980 C 266.704 73.844,267.118 73.608,267.355 73.455 C 267.929 73.084,269.494 72.481,270.452 72.261 C 272.707 71.744,274.804 71.731,280.373 72.198 C 281.537 72.296,281.632 72.276,282.051 71.858 L 282.495 71.413 282.495 62.967 L 282.495 54.521 282.035 54.095 C 281.782 53.861,281.376 53.628,281.132 53.578 C 280.888 53.527,280.378 53.417,280.000 53.334 C 279.156 53.147,277.450 53.052,275.957 53.109 M167.312 54.779 C 179.583 55.186,187.566 59.641,189.689 67.269 C 189.977 68.305,190.008 69.807,190.115 87.828 C 190.244 109.813,190.353 111.862,191.566 115.227 C 191.805 115.888,192.000 116.555,192.000 116.709 C 192.000 116.964,191.259 116.989,183.746 116.989 L 175.493 116.989 175.249 116.516 C 174.960 115.957,174.280 112.916,174.280 112.185 C 174.280 111.362,174.001 111.407,172.806 112.421 C 163.294 120.490,144.781 120.557,137.440 112.548 C 132.290 106.929,131.615 96.689,135.970 90.237 C 139.391 85.167,145.603 82.746,159.140 81.209 C 164.189 80.636,165.316 80.464,167.226 79.975 C 172.435 78.643,174.092 76.456,173.266 72.000 C 172.527 68.010,169.841 66.217,164.215 65.959 C 156.886 65.624,153.032 67.961,152.006 73.366 C 151.863 74.117,151.683 74.795,151.605 74.873 C 151.527 74.951,147.790 74.994,143.302 74.969 L 135.140 74.925 135.178 73.633 C 135.513 62.260,148.474 53.792,164.215 54.662 C 164.594 54.683,165.987 54.736,167.312 54.779 M290.522 54.701 L 287.281 54.796 286.866 55.278 L 286.452 55.761 286.452 86.620 L 286.452 117.479 286.897 118.008 L 287.342 118.538 296.287 118.538 L 305.231 118.538 305.734 118.035 L 306.237 117.532 306.237 86.660 C 306.237 51.792,306.379 55.185,304.895 54.740 C 304.190 54.529,297.037 54.510,290.522 54.701 M73.592 54.969 C 79.436 55.917,83.619 58.603,86.030 62.955 C 86.949 64.615,86.921 64.612,88.000 63.197 C 92.217 57.669,98.317 54.706,105.462 54.713 C 118.148 54.726,125.474 60.454,127.049 71.592 C 127.294 73.322,127.320 76.053,127.276 95.226 L 127.226 116.903 118.968 116.903 L 110.710 116.903 110.602 97.032 C 110.495 77.201,110.460 76.140,109.857 74.065 C 107.554 66.144,95.007 65.525,91.242 73.145 C 89.529 76.611,89.589 75.775,89.514 97.539 C 89.468 110.814,89.392 116.609,89.262 116.765 C 88.954 117.137,72.850 117.090,72.707 116.717 C 72.649 116.567,72.602 107.747,72.602 97.117 C 72.602 76.852,72.581 76.222,71.822 73.720 C 69.500 66.067,57.887 65.755,53.444 73.227 C 51.426 76.621,51.444 76.406,51.439 98.237 C 51.437 108.314,51.374 116.657,51.298 116.776 C 51.190 116.946,49.414 116.983,43.000 116.948 L 34.839 116.903 34.839 86.624 L 34.839 56.344 42.581 56.344 L 50.323 56.344 50.420 60.215 C 50.542 65.035,50.363 64.783,52.121 62.611 C 57.131 56.420,65.085 53.590,73.592 54.969 M280.000 54.942 L 280.860 55.142 280.905 62.949 L 280.950 70.755 280.217 70.647 C 267.699 68.798,260.842 73.237,258.990 84.387 C 258.745 85.863,258.689 88.300,258.599 101.505 L 258.495 116.903 250.237 116.903 L 241.978 116.903 241.978 86.624 L 241.978 56.344 249.806 56.344 L 257.634 56.344 257.720 61.620 C 257.796 66.272,257.878 67.357,258.130 67.082 C 258.167 67.043,258.472 66.460,258.809 65.787 C 262.497 58.419,272.633 53.232,280.000 54.942 M312.602 54.932 C 311.161 55.661,311.449 56.509,314.753 61.250 C 316.302 63.472,317.888 65.755,318.278 66.323 C 318.668 66.890,319.691 68.361,320.550 69.591 C 321.409 70.822,322.853 72.912,323.758 74.237 C 324.664 75.561,325.833 77.239,326.358 77.964 C 326.883 78.689,327.892 80.149,328.602 81.208 C 329.312 82.267,329.970 83.222,330.065 83.330 C 330.358 83.666,331.183 84.916,331.183 85.026 C 331.183 85.120,328.777 88.695,325.880 92.903 C 325.262 93.802,323.915 95.776,322.887 97.290 C 319.864 101.743,317.565 105.106,316.295 106.935 C 309.529 116.674,309.342 117.024,310.352 118.035 L 310.855 118.538 320.686 118.538 C 326.781 118.538,330.637 118.474,330.832 118.369 C 331.006 118.276,332.676 115.896,334.544 113.079 C 340.082 104.727,342.601 100.971,342.701 100.910 C 342.812 100.844,342.792 100.813,349.157 110.452 C 351.876 114.568,354.266 118.069,354.469 118.233 C 354.810 118.507,355.629 118.530,364.916 118.534 L 374.994 118.538 375.411 118.094 C 376.372 117.070,375.949 116.106,372.395 111.226 C 371.912 110.563,370.992 109.247,370.350 108.301 C 369.708 107.355,368.908 106.194,368.574 105.720 C 368.016 104.933,365.898 101.873,363.035 97.720 C 362.416 96.822,361.513 95.544,361.029 94.882 C 360.545 94.219,359.847 93.213,359.477 92.645 C 359.108 92.077,358.248 90.825,357.567 89.863 C 355.139 86.431,354.065 84.840,354.065 84.675 C 354.065 84.583,354.703 83.611,355.484 82.515 C 357.691 79.416,359.037 77.497,360.321 75.620 C 360.970 74.670,361.899 73.354,362.385 72.697 C 362.871 72.039,364.004 70.435,364.903 69.131 C 366.544 66.752,371.161 60.160,372.688 58.017 C 373.639 56.682,373.735 56.028,373.090 55.278 L 372.675 54.796 363.109 54.748 C 357.848 54.722,353.293 54.765,352.987 54.843 C 352.488 54.970,351.942 55.719,347.748 62.030 C 345.172 65.905,343.016 69.061,342.956 69.044 C 342.812 69.003,341.746 67.460,337.985 61.849 C 333.662 55.402,333.399 55.038,332.942 54.864 C 332.268 54.607,313.117 54.672,312.602 54.932 M304.602 86.624 L 304.602 116.903 296.344 116.903 L 288.086 116.903 288.042 86.796 C 288.018 70.237,288.035 56.591,288.080 56.471 C 288.145 56.300,289.898 56.264,296.382 56.299 L 304.602 56.344 304.602 86.624 M332.316 56.390 C 332.419 56.459,334.814 59.945,337.640 64.135 C 340.613 68.545,342.871 71.734,343.001 71.705 C 343.125 71.678,345.529 68.211,348.344 64.000 L 353.462 56.344 362.484 56.300 C 367.447 56.275,371.570 56.318,371.647 56.396 C 371.796 56.544,371.353 57.200,364.823 66.495 C 356.535 78.292,355.124 80.300,353.663 82.385 C 352.843 83.554,352.172 84.586,352.172 84.677 C 352.172 84.768,353.309 86.482,354.699 88.485 C 356.089 90.489,361.017 97.587,365.650 104.257 C 370.283 110.928,374.081 116.502,374.091 116.644 C 374.105 116.872,372.970 116.903,364.731 116.903 L 355.355 116.903 349.161 107.576 C 345.535 102.114,342.861 98.249,342.710 98.250 C 342.560 98.252,339.990 101.990,336.602 107.134 C 333.385 112.019,330.572 116.235,330.350 116.503 L 329.948 116.989 320.845 116.989 C 312.124 116.989,311.742 116.976,311.742 116.673 C 311.742 116.499,314.385 112.493,317.616 107.770 C 320.846 103.047,325.234 96.628,327.365 93.505 C 329.497 90.383,331.657 87.217,332.167 86.471 C 333.284 84.836,333.624 85.683,329.420 79.630 C 324.106 71.978,318.799 64.328,315.980 60.254 C 314.587 58.241,313.494 56.519,313.551 56.426 C 313.673 56.229,332.025 56.193,332.316 56.390 M172.387 88.113 C 171.867 88.382,170.794 88.795,170.002 89.029 C 168.694 89.417,167.493 89.633,160.921 90.666 C 152.328 92.016,148.653 95.919,150.267 101.981 C 151.872 108.011,163.375 109.482,169.443 104.432 C 172.395 101.976,173.367 99.003,173.540 91.903 C 173.651 87.366,173.675 87.445,172.387 88.113 M171.818 93.548 C 171.655 101.833,168.568 105.413,161.306 105.737 C 154.476 106.043,151.656 104.253,151.656 99.613 C 151.656 94.851,154.350 93.081,163.441 91.868 C 165.954 91.533,167.808 91.209,169.204 90.861 C 170.885 90.442,171.216 90.347,171.311 90.252 C 171.817 89.746,171.884 90.185,171.818 93.548 " stroke="none" fill="#eaeaea" fill-rule="evenodd"></path><path id="path1" d="M1.075 85.977 L 1.118 170.925 9.118 170.925 L 17.118 170.925 17.118 169.032 L 17.118 167.140 11.542 167.094 C 7.777 167.064,5.890 166.987,5.735 166.858 C 5.495 166.659,5.371 5.885,5.610 5.261 C 5.702 5.021,6.362 4.989,11.244 4.987 C 14.286 4.985,16.874 4.921,16.996 4.844 C 17.158 4.740,17.204 4.229,17.168 2.911 L 17.118 1.118 9.075 1.074 L 1.032 1.029 1.075 85.977 M383.005 2.968 L 383.054 4.903 388.817 4.989 L 394.581 5.075 394.581 86.022 L 394.581 166.968 388.817 167.054 L 383.054 167.140 383.054 169.032 L 383.054 170.925 391.054 170.925 L 399.054 170.925 399.097 85.978 L 399.140 1.032 391.048 1.032 L 382.956 1.032 383.005 2.968 M16.140 2.808 C 16.237 3.986,16.379 3.957,10.506 3.957 C 6.218 3.957,5.164 4.003,4.893 4.201 C 4.371 4.583,4.279 166.948,4.801 167.593 L 5.130 168.000 10.608 168.086 L 16.086 168.172 16.086 169.032 L 16.086 169.892 9.118 169.892 L 2.151 169.892 2.107 85.977 L 2.064 2.061 9.075 2.106 L 16.086 2.151 16.140 2.808 M398.065 85.978 L 398.022 169.892 391.054 169.892 L 384.086 169.892 384.086 169.032 L 384.086 168.172 389.564 168.086 L 395.042 168.000 395.370 167.594 C 395.901 166.938,395.886 4.832,395.355 4.301 C 395.026 3.972,394.781 3.957,389.712 3.957 C 383.903 3.957,384.000 3.975,384.000 2.919 C 384.000 2.020,383.627 2.065,391.169 2.065 L 398.108 2.065 398.065 85.978 M288.116 33.317 C 288.052 33.381,288.000 36.480,288.000 40.202 L 288.000 46.971 296.301 46.926 L 304.602 46.882 304.602 40.086 L 304.602 33.290 296.417 33.246 C 291.916 33.221,288.180 33.253,288.116 33.317 M303.570 40.086 L 303.570 45.849 296.344 45.849 L 289.118 45.849 289.073 40.259 C 289.048 37.185,289.065 34.571,289.111 34.451 C 289.177 34.279,290.700 34.242,296.382 34.278 L 303.570 34.323 303.570 40.086 M205.270 38.252 C 205.136 38.414,205.065 41.145,205.034 47.328 L 204.989 56.172 200.186 56.218 C 196.994 56.248,195.307 56.327,195.154 56.454 C 194.914 56.653,194.799 66.569,195.029 67.169 C 195.121 67.408,195.723 67.441,200.015 67.441 L 204.897 67.441 204.986 67.828 C 205.036 68.041,205.097 76.809,205.123 87.312 L 205.170 106.409 205.571 107.871 C 207.031 113.188,210.799 116.040,217.892 117.195 C 220.782 117.666,232.953 117.431,233.832 116.888 C 233.912 116.838,233.978 113.926,233.978 110.417 L 233.978 104.037 232.903 104.152 C 225.757 104.914,223.097 104.109,222.167 100.903 C 221.786 99.588,221.576 68.132,221.946 67.686 C 222.115 67.482,223.154 67.441,228.066 67.441 L 233.983 67.441 233.938 61.892 L 233.892 56.344 227.966 56.299 C 223.487 56.265,222.006 56.201,221.904 56.041 C 221.830 55.924,221.768 51.868,221.766 47.029 C 221.764 39.166,221.735 38.219,221.491 38.126 C 220.880 37.891,205.470 38.011,205.270 38.252 M220.459 39.158 C 220.702 39.251,220.731 40.176,220.731 47.823 C 220.731 56.209,220.738 56.393,221.086 56.835 L 221.441 57.286 227.150 57.331 L 232.860 57.376 232.860 61.849 L 232.860 66.323 227.146 66.409 C 221.958 66.487,221.403 66.523,221.124 66.802 C 220.754 67.173,220.556 95.139,220.897 98.964 C 221.362 104.178,222.901 105.348,229.333 105.376 L 232.860 105.391 232.860 110.712 L 232.860 116.033 232.086 116.192 C 230.532 116.511,219.647 116.421,217.548 116.073 C 210.492 114.901,206.968 111.657,206.286 105.705 C 206.177 104.757,206.109 97.114,206.106 85.677 C 206.104 75.505,206.045 67.098,205.976 66.993 C 205.630 66.475,205.022 66.409,200.634 66.409 L 196.169 66.409 196.065 66.022 C 195.883 65.342,195.944 57.979,196.135 57.623 C 196.304 57.307,196.541 57.290,200.866 57.290 C 205.190 57.290,205.437 57.273,205.763 56.946 C 206.098 56.611,206.108 56.373,206.108 48.009 C 206.108 40.006,206.128 39.403,206.409 39.240 C 206.734 39.050,219.977 38.973,220.459 39.158 M161.978 54.662 C 146.348 55.045,135.499 62.725,135.178 73.633 L 135.140 74.925 143.302 74.969 C 147.790 74.994,151.527 74.951,151.605 74.873 C 151.683 74.795,151.863 74.117,152.006 73.366 C 153.032 67.961,156.886 65.624,164.215 65.959 C 169.841 66.217,172.527 68.010,173.266 72.000 C 174.092 76.456,172.435 78.643,167.226 79.975 C 165.316 80.464,164.189 80.636,159.140 81.209 C 139.685 83.418,133.299 88.130,133.267 100.301 C 133.252 105.914,134.373 109.201,137.440 112.548 C 144.781 120.557,163.294 120.490,172.806 112.421 C 174.001 111.407,174.280 111.362,174.280 112.185 C 174.280 112.916,174.960 115.957,175.249 116.516 L 175.493 116.989 183.746 116.989 C 191.259 116.989,192.000 116.964,192.000 116.709 C 192.000 116.555,191.805 115.888,191.566 115.227 C 190.353 111.862,190.244 109.813,190.115 87.828 C 190.008 69.807,189.977 68.305,189.689 67.269 C 187.566 59.641,179.583 55.186,167.312 54.779 C 165.987 54.736,164.594 54.683,164.215 54.662 C 163.837 54.641,162.830 54.641,161.978 54.662 M64.935 54.970 C 59.951 55.882,55.342 58.631,52.121 62.611 C 50.363 64.783,50.542 65.035,50.420 60.215 L 50.323 56.344 42.581 56.344 L 34.839 56.344 34.839 86.624 L 34.839 116.903 43.000 116.948 C 49.414 116.983,51.190 116.946,51.298 116.776 C 51.374 116.657,51.437 108.314,51.439 98.237 C 51.444 76.406,51.426 76.621,53.444 73.227 C 57.887 65.755,69.500 66.067,71.822 73.720 C 72.581 76.222,72.602 76.852,72.602 97.117 C 72.602 107.747,72.649 116.567,72.707 116.717 C 72.850 117.090,88.954 117.137,89.262 116.765 C 89.392 116.609,89.468 110.814,89.514 97.539 C 89.570 81.073,89.615 78.365,89.850 77.247 C 91.283 70.430,95.431 67.300,102.134 67.977 C 106.930 68.461,109.484 71.001,110.324 76.124 C 110.425 76.736,110.538 85.301,110.602 97.032 L 110.710 116.903 118.968 116.903 L 127.226 116.903 127.276 95.226 C 127.320 76.053,127.294 73.322,127.049 71.592 C 125.474 60.454,118.148 54.726,105.462 54.713 C 98.317 54.706,92.217 57.669,88.000 63.197 C 86.921 64.612,86.949 64.615,86.030 62.955 C 82.563 56.697,73.740 53.357,64.935 54.970 M273.204 55.048 C 267.142 56.350,261.381 60.648,258.809 65.787 C 258.472 66.460,258.167 67.043,258.130 67.082 C 257.878 67.357,257.796 66.272,257.720 61.620 L 257.634 56.344 249.806 56.344 L 241.978 56.344 241.978 86.624 L 241.978 116.903 250.237 116.903 L 258.495 116.903 258.599 101.505 C 258.689 88.300,258.745 85.863,258.990 84.387 C 260.842 73.237,267.699 68.798,280.217 70.647 L 280.950 70.755 280.905 62.949 L 280.860 55.142 280.000 54.942 C 278.633 54.625,274.903 54.683,273.204 55.048 M73.397 56.007 C 79.519 57.069,83.095 59.501,85.585 64.295 C 86.567 66.185,87.039 66.180,88.508 64.261 C 92.748 58.726,98.039 55.956,104.699 55.785 C 116.567 55.481,123.607 60.289,125.795 70.194 L 126.194 72.000 126.194 93.935 L 126.194 115.871 119.160 115.916 C 114.110 115.948,112.060 115.906,111.891 115.766 C 111.695 115.603,111.656 112.575,111.654 97.570 C 111.652 75.861,111.590 74.851,110.085 71.869 C 106.880 65.520,95.946 64.965,91.431 70.922 C 88.534 74.746,88.433 75.650,88.432 97.861 C 88.431 109.545,88.371 115.401,88.252 115.624 C 88.023 116.052,74.184 116.154,73.833 115.731 C 73.701 115.572,73.629 109.673,73.589 95.731 C 73.524 73.428,73.605 74.786,72.170 71.810 C 68.593 64.393,56.420 65.322,52.205 73.333 C 50.388 76.787,50.411 76.483,50.410 97.656 C 50.409 112.589,50.369 115.603,50.174 115.766 C 50.005 115.906,47.954 115.948,42.905 115.916 L 35.871 115.871 35.871 86.624 L 35.871 57.376 42.581 57.376 L 49.290 57.376 49.376 61.075 C 49.466 64.930,49.502 65.130,50.149 65.376 C 50.836 65.637,51.226 65.378,52.450 63.845 C 57.587 57.412,65.161 54.578,73.397 56.007 M170.053 56.000 C 180.642 57.124,186.801 60.936,188.678 67.527 C 188.944 68.461,188.982 70.408,189.087 88.086 C 189.212 109.069,189.289 110.885,190.212 114.473 C 190.626 116.081,191.200 115.957,183.321 115.957 L 176.352 115.957 176.107 115.570 C 175.826 115.126,175.539 113.853,175.304 112.014 C 175.014 109.741,174.403 109.571,172.538 111.248 C 167.916 115.401,161.944 117.371,153.978 117.372 C 141.202 117.373,134.307 111.424,134.293 100.387 C 134.279 88.807,140.414 84.359,159.312 82.247 C 172.340 80.791,175.444 78.629,174.296 71.810 C 173.487 67.007,170.145 64.977,163.011 64.958 C 155.992 64.939,152.390 67.246,151.110 72.580 C 150.738 74.130,151.501 73.998,143.226 73.940 L 136.344 73.892 136.294 73.204 C 136.164 71.400,137.724 67.231,139.348 65.043 C 143.272 59.755,149.516 56.832,158.968 55.859 C 160.719 55.679,167.884 55.770,170.053 56.000 M279.736 56.011 C 279.860 56.135,279.904 58.317,279.873 62.806 L 279.828 69.419 279.312 69.391 C 275.046 69.159,273.616 69.142,272.287 69.307 C 265.150 70.196,260.396 74.354,258.586 81.290 C 257.683 84.754,257.675 84.915,257.565 100.903 L 257.462 115.871 250.388 115.916 C 244.575 115.953,243.279 115.919,243.119 115.726 C 242.975 115.552,242.935 107.905,242.967 86.433 L 243.011 57.376 249.806 57.376 L 256.602 57.376 256.688 62.641 C 256.783 68.431,256.791 68.473,257.821 68.473 C 258.388 68.473,259.097 67.949,259.097 67.529 C 259.097 67.116,261.052 64.059,262.142 62.767 C 264.941 59.451,269.290 56.904,273.715 55.991 C 275.043 55.716,279.456 55.731,279.736 56.011 M288.080 56.471 C 288.035 56.591,288.018 70.237,288.042 86.796 L 288.086 116.903 296.344 116.903 L 304.602 116.903 304.602 86.624 L 304.602 56.344 296.382 56.299 C 289.898 56.264,288.145 56.300,288.080 56.471 M313.551 56.426 C 313.494 56.519,314.587 58.241,315.980 60.254 C 318.799 64.328,324.106 71.978,329.420 79.630 C 333.624 85.683,333.284 84.836,332.167 86.471 C 331.657 87.217,329.497 90.383,327.365 93.505 C 325.234 96.628,320.846 103.047,317.616 107.770 C 314.385 112.493,311.742 116.499,311.742 116.673 C 311.742 116.976,312.124 116.989,320.845 116.989 L 329.948 116.989 330.350 116.503 C 330.572 116.235,333.385 112.019,336.602 107.134 C 339.990 101.990,342.560 98.252,342.710 98.250 C 342.861 98.249,345.535 102.114,349.161 107.576 L 355.355 116.903 364.731 116.903 C 372.970 116.903,374.105 116.872,374.091 116.644 C 374.081 116.502,370.283 110.928,365.650 104.257 C 361.017 97.587,356.089 90.489,354.699 88.485 C 353.309 86.482,352.172 84.768,352.172 84.677 C 352.172 84.586,352.843 83.554,353.663 82.385 C 355.124 80.300,356.535 78.292,364.823 66.495 C 371.353 57.200,371.796 56.544,371.647 56.396 C 371.570 56.318,367.447 56.275,362.484 56.300 L 353.462 56.344 348.344 64.000 C 345.529 68.211,343.125 71.678,343.001 71.705 C 342.871 71.734,340.613 68.545,337.640 64.135 C 334.814 59.945,332.419 56.459,332.316 56.390 C 332.025 56.193,313.673 56.229,313.551 56.426 M303.613 86.577 L 303.657 115.778 303.269 115.872 C 303.056 115.924,299.785 115.945,296.000 115.919 L 289.118 115.871 289.074 86.796 C 289.050 70.804,289.067 57.623,289.112 57.503 C 289.177 57.333,290.724 57.296,296.382 57.331 L 303.570 57.376 303.613 86.577 M332.171 57.945 C 332.432 58.306,334.774 61.761,337.376 65.623 C 339.978 69.486,342.285 72.763,342.502 72.907 C 343.267 73.412,343.533 73.084,348.900 65.036 L 354.069 57.287 361.852 57.332 C 368.645 57.371,369.632 57.409,369.616 57.634 C 369.605 57.776,365.625 63.544,360.770 70.452 C 350.566 84.971,350.931 84.428,351.075 84.895 C 351.135 85.089,355.903 92.046,361.671 100.355 C 367.974 109.434,372.120 115.561,372.063 115.709 C 371.931 116.052,356.358 116.083,355.916 115.742 C 355.763 115.624,352.886 111.367,349.522 106.284 C 343.213 96.750,343.058 96.552,342.271 96.992 C 342.111 97.082,339.183 101.366,335.764 106.513 L 329.548 115.871 321.673 115.916 C 315.046 115.953,313.782 115.922,313.704 115.719 C 313.651 115.580,317.847 109.286,323.667 100.777 C 334.790 84.515,334.168 85.468,334.071 84.840 C 334.033 84.591,330.052 78.697,325.225 71.742 C 314.917 56.891,315.464 57.703,315.607 57.472 C 315.683 57.349,318.277 57.290,323.708 57.290 L 331.697 57.290 332.171 57.945 M172.243 86.973 C 170.668 87.955,168.473 88.508,163.097 89.278 C 152.508 90.793,148.983 93.410,148.991 99.750 C 149.000 106.032,154.659 109.429,163.116 108.229 C 171.385 107.056,174.624 102.112,174.624 90.663 C 174.624 86.031,174.374 85.644,172.243 86.973 M173.540 91.903 C 173.300 101.774,170.607 105.866,163.533 107.111 C 156.905 108.278,151.373 106.139,150.267 101.981 C 148.653 95.919,152.328 92.016,160.921 90.666 C 167.493 89.633,168.694 89.417,170.002 89.029 C 170.794 88.795,171.867 88.382,172.387 88.113 C 173.675 87.445,173.651 87.366,173.540 91.903 " stroke="none" fill="#848484" fill-rule="evenodd"></path><path id="path2" d="M2.107 85.977 L 2.151 169.892 9.118 169.892 L 16.086 169.892 16.086 169.032 L 16.086 168.172 10.608 168.086 L 5.130 168.000 4.801 167.593 C 4.279 166.948,4.371 4.583,4.893 4.201 C 5.164 4.003,6.218 3.957,10.506 3.957 C 16.379 3.957,16.237 3.986,16.140 2.808 L 16.086 2.151 9.075 2.106 L 2.064 2.061 2.107 85.977 M384.115 2.179 C 383.920 2.374,383.988 3.532,384.206 3.751 C 384.358 3.902,385.820 3.957,389.712 3.957 C 394.781 3.957,395.026 3.972,395.355 4.301 C 395.886 4.832,395.901 166.938,395.370 167.594 L 395.042 168.000 389.564 168.086 L 384.086 168.172 384.086 169.032 L 384.086 169.892 391.054 169.892 L 398.022 169.892 398.065 85.978 L 398.108 2.065 391.169 2.065 C 387.352 2.065,384.178 2.116,384.115 2.179 M289.111 34.451 C 289.065 34.571,289.048 37.185,289.073 40.259 L 289.118 45.849 296.344 45.849 L 303.570 45.849 303.570 40.086 L 303.570 34.323 296.382 34.278 C 290.700 34.242,289.177 34.279,289.111 34.451 M206.409 39.240 C 206.128 39.403,206.108 40.006,206.108 48.009 C 206.108 56.373,206.098 56.611,205.763 56.946 C 205.437 57.273,205.190 57.290,200.866 57.290 C 196.541 57.290,196.304 57.307,196.135 57.623 C 195.944 57.979,195.883 65.342,196.065 66.022 L 196.169 66.409 200.634 66.409 C 205.022 66.409,205.630 66.475,205.976 66.993 C 206.045 67.098,206.104 75.505,206.106 85.677 C 206.109 97.114,206.177 104.757,206.286 105.705 C 206.968 111.657,210.492 114.901,217.548 116.073 C 219.647 116.421,230.532 116.511,232.086 116.192 L 232.860 116.033 232.860 110.712 L 232.860 105.391 229.333 105.376 C 222.901 105.348,221.362 104.178,220.897 98.964 C 220.556 95.139,220.754 67.173,221.124 66.802 C 221.403 66.523,221.958 66.487,227.146 66.409 L 232.860 66.323 232.860 61.849 L 232.860 57.376 227.150 57.331 L 221.441 57.286 221.086 56.835 C 220.738 56.393,220.731 56.209,220.731 47.823 C 220.731 40.176,220.702 39.251,220.459 39.158 C 219.977 38.973,206.734 39.050,206.409 39.240 M64.774 56.083 C 59.901 57.064,55.805 59.644,52.450 63.845 C 51.226 65.378,50.836 65.637,50.149 65.376 C 49.502 65.130,49.466 64.930,49.376 61.075 L 49.290 57.376 42.581 57.376 L 35.871 57.376 35.871 86.624 L 35.871 115.871 42.905 115.916 C 47.954 115.948,50.005 115.906,50.174 115.766 C 50.369 115.603,50.409 112.589,50.410 97.656 C 50.411 76.483,50.388 76.787,52.205 73.333 C 56.420 65.322,68.593 64.393,72.170 71.810 C 73.605 74.786,73.524 73.428,73.589 95.731 C 73.629 109.673,73.701 115.572,73.833 115.731 C 74.184 116.154,88.023 116.052,88.252 115.624 C 88.371 115.401,88.431 109.545,88.432 97.861 C 88.433 75.650,88.534 74.746,91.431 70.922 C 95.946 64.965,106.880 65.520,110.085 71.869 C 111.590 74.851,111.652 75.861,111.654 97.570 C 111.656 112.575,111.695 115.603,111.891 115.766 C 112.060 115.906,114.110 115.948,119.160 115.916 L 126.194 115.871 126.194 93.935 L 126.194 72.000 125.795 70.194 C 123.607 60.289,116.567 55.481,104.699 55.785 C 98.039 55.956,92.748 58.726,88.508 64.261 C 87.039 66.180,86.567 66.185,85.585 64.295 C 82.101 57.587,73.722 54.281,64.774 56.083 M158.968 55.859 C 149.516 56.832,143.272 59.755,139.348 65.043 C 137.724 67.231,136.164 71.400,136.294 73.204 L 136.344 73.892 143.226 73.940 C 151.501 73.998,150.738 74.130,151.110 72.580 C 152.390 67.246,155.992 64.939,163.011 64.958 C 170.145 64.977,173.487 67.007,174.296 71.810 C 175.444 78.629,172.340 80.791,159.312 82.247 C 140.414 84.359,134.279 88.807,134.293 100.387 C 134.307 111.424,141.202 117.373,153.978 117.372 C 161.944 117.371,167.916 115.401,172.538 111.248 C 174.403 109.571,175.014 109.741,175.304 112.014 C 175.539 113.853,175.826 115.126,176.107 115.570 L 176.352 115.957 183.321 115.957 C 191.200 115.957,190.626 116.081,190.212 114.473 C 189.289 110.885,189.212 109.069,189.087 88.086 C 188.982 70.408,188.944 68.461,188.678 67.527 C 187.049 61.805,181.586 57.814,173.494 56.433 C 170.119 55.856,162.076 55.539,158.968 55.859 M273.715 55.991 C 269.290 56.904,264.941 59.451,262.142 62.767 C 261.052 64.059,259.097 67.116,259.097 67.529 C 259.097 67.949,258.388 68.473,257.821 68.473 C 256.791 68.473,256.783 68.431,256.688 62.641 L 256.602 57.376 249.806 57.376 L 243.011 57.376 242.967 86.433 C 242.935 107.905,242.975 115.552,243.119 115.726 C 243.279 115.919,244.575 115.953,250.388 115.916 L 257.462 115.871 257.565 100.903 C 257.675 84.915,257.683 84.754,258.586 81.290 C 260.396 74.354,265.150 70.196,272.287 69.307 C 273.616 69.142,275.046 69.159,279.312 69.391 L 279.828 69.419 279.873 62.806 C 279.904 58.317,279.860 56.135,279.736 56.011 C 279.456 55.731,275.043 55.716,273.715 55.991 M289.112 57.503 C 289.067 57.623,289.050 70.804,289.074 86.796 L 289.118 115.871 296.000 115.919 C 299.785 115.945,303.056 115.924,303.269 115.872 L 303.657 115.778 303.613 86.577 L 303.570 57.376 296.382 57.331 C 290.724 57.296,289.177 57.333,289.112 57.503 M315.607 57.472 C 315.464 57.703,314.917 56.891,325.225 71.742 C 330.052 78.697,334.033 84.591,334.071 84.840 C 334.168 85.468,334.790 84.515,323.667 100.777 C 317.847 109.286,313.651 115.580,313.704 115.719 C 313.782 115.922,315.046 115.953,321.673 115.916 L 329.548 115.871 335.764 106.513 C 339.183 101.366,342.111 97.082,342.271 96.992 C 343.058 96.552,343.213 96.750,349.522 106.284 C 352.886 111.367,355.763 115.624,355.916 115.742 C 356.358 116.083,371.931 116.052,372.063 115.709 C 372.120 115.561,367.974 109.434,361.671 100.355 C 355.903 92.046,351.135 85.089,351.075 84.895 C 350.931 84.428,350.566 84.971,360.770 70.452 C 365.625 63.544,369.605 57.776,369.616 57.634 C 369.632 57.409,368.645 57.371,361.852 57.332 L 354.069 57.287 348.900 65.036 C 343.533 73.084,343.267 73.412,342.502 72.907 C 342.285 72.763,339.978 69.486,337.376 65.623 C 334.774 61.761,332.432 58.306,332.171 57.945 L 331.697 57.290 323.708 57.290 C 318.277 57.290,315.683 57.349,315.607 57.472 M174.356 86.748 C 175.007 87.678,174.561 97.247,173.754 99.640 C 171.707 105.718,166.838 108.653,159.331 108.334 C 152.385 108.039,148.999 105.228,148.991 99.750 C 148.983 93.410,152.508 90.793,163.097 89.278 C 168.473 88.508,170.668 87.955,172.243 86.973 C 173.348 86.284,173.984 86.216,174.356 86.748 " stroke="none" fill="#040404" fill-rule="evenodd"></path></g></svg>