<svg id="svg" xmlns="http://www.w3.org/2000/svg" xmlns:xlink="http://www.w3.org/1999/xlink" width="400" height="400" viewBox="0, 0, 400,400" version="1.1"><g id="svgg"><path id="path0" d="M182.982 158.857 C 181.232 160.685,178.354 163.715,176.586 165.590 C 174.819 167.466,172.011 170.440,170.346 172.200 C 168.682 173.960,161.409 181.700,154.185 189.400 C 136.332 208.429,125.871 219.536,118.459 227.335 C 114.301 231.709,114.475 231.899,119.881 228.893 C 123.975 226.616,129.574 223.554,135.800 220.188 C 137.340 219.355,140.940 217.377,143.800 215.793 C 146.660 214.209,153.050 210.704,158.000 208.004 C 162.950 205.304,167.900 202.599,169.000 201.993 C 176.795 197.696,179.336 196.379,179.634 196.482 C 179.822 196.547,183.246 200.110,187.244 204.400 C 191.242 208.690,195.705 213.460,197.163 215.000 C 203.398 221.587,211.131 229.868,211.826 230.700 C 213.127 232.258,212.162 233.079,224.402 220.000 C 227.800 216.370,231.858 212.050,233.420 210.400 C 234.983 208.750,239.473 203.980,243.398 199.800 C 247.323 195.620,251.723 190.940,253.176 189.400 C 254.629 187.860,257.516 184.800,259.592 182.600 C 267.556 174.162,269.963 171.601,275.022 166.188 C 283.508 157.107,284.266 156.237,283.400 156.553 C 282.733 156.797,277.641 159.571,264.400 166.901 C 263.410 167.449,257.470 170.736,251.200 174.205 C 244.930 177.675,236.740 182.225,233.000 184.317 C 229.260 186.409,224.926 188.812,223.369 189.658 L 220.537 191.196 215.369 185.895 C 212.526 182.980,206.243 176.456,201.406 171.398 C 196.570 166.339,191.162 160.700,189.388 158.866 L 186.164 155.533 182.982 158.857 " stroke="none" fill="#f9fafb" fill-rule="evenodd"></path><path id="path1" d="M188.980 67.154 C 188.771 67.348,185.925 67.703,182.655 67.942 C 179.386 68.181,176.506 68.540,176.255 68.740 C 176.005 68.939,174.540 69.233,173.000 69.393 C 171.460 69.553,170.103 69.838,169.985 70.028 C 169.866 70.218,168.696 70.491,167.385 70.636 C 166.073 70.781,164.460 71.130,163.800 71.411 C 163.140 71.693,161.895 72.024,161.032 72.148 C 160.170 72.271,159.360 72.536,159.232 72.737 C 159.105 72.938,158.190 73.231,157.200 73.389 C 156.210 73.548,155.040 73.902,154.600 74.178 C 154.160 74.454,153.125 74.805,152.300 74.958 C 151.475 75.111,150.800 75.408,150.800 75.618 C 150.800 75.828,150.388 76.000,149.885 76.000 C 149.381 76.000,148.263 76.360,147.400 76.800 C 146.537 77.240,145.612 77.600,145.344 77.600 C 145.076 77.600,144.619 77.835,144.329 78.123 C 144.038 78.411,142.948 78.883,141.908 79.173 C 140.867 79.463,139.810 79.947,139.559 80.250 C 139.308 80.552,138.764 80.800,138.351 80.800 C 137.938 80.800,137.600 80.966,137.600 81.169 C 137.600 81.372,136.925 81.755,136.100 82.020 C 135.275 82.284,134.330 82.709,134.000 82.963 C 133.670 83.217,132.590 83.852,131.600 84.374 C 130.610 84.896,129.080 85.799,128.200 86.380 C 127.320 86.962,126.285 87.559,125.900 87.706 C 125.515 87.854,125.200 88.146,125.200 88.356 C 125.200 88.565,124.660 88.855,124.000 89.000 C 123.340 89.145,122.800 89.435,122.800 89.644 C 122.800 89.854,122.485 90.140,122.100 90.281 C 121.715 90.421,121.016 90.821,120.546 91.168 C 120.077 91.516,119.282 92.070,118.780 92.400 C 118.279 92.730,117.581 93.270,117.229 93.600 C 116.878 93.930,115.854 94.740,114.954 95.400 C 108.375 100.223,91.600 117.264,91.600 119.124 C 91.600 119.339,91.330 119.618,91.000 119.745 C 90.670 119.871,90.400 120.242,90.400 120.568 C 90.400 120.894,90.175 121.304,89.900 121.480 C 89.302 121.863,87.851 123.918,87.486 124.900 C 87.342 125.285,87.039 125.600,86.813 125.600 C 86.586 125.600,86.400 125.815,86.400 126.078 C 86.400 126.483,84.633 129.372,84.001 130.000 C 83.891 130.110,83.261 131.280,82.602 132.600 C 81.943 133.920,81.312 135.090,81.198 135.200 C 80.708 135.675,78.800 139.871,78.800 140.472 C 78.800 140.836,78.643 141.193,78.451 141.267 C 77.952 141.458,76.000 145.873,76.000 146.812 C 76.000 147.245,75.822 147.600,75.605 147.600 C 75.387 147.600,75.094 148.320,74.954 149.200 C 74.813 150.080,74.559 150.800,74.389 150.800 C 74.219 150.800,73.858 151.745,73.588 152.900 C 73.317 154.055,72.947 155.189,72.765 155.420 C 72.584 155.651,72.313 156.641,72.163 157.620 C 72.013 158.599,71.724 159.613,71.519 159.873 C 71.315 160.133,70.976 161.559,70.766 163.041 C 70.556 164.524,70.212 165.945,70.001 166.199 C 69.791 166.452,69.500 167.996,69.355 169.630 C 69.210 171.263,68.891 172.853,68.646 173.161 C 68.023 173.946,68.017 205.510,68.639 205.915 C 68.881 206.072,69.196 207.621,69.339 209.359 C 69.482 211.096,69.761 212.716,69.958 212.959 C 70.155 213.201,70.523 214.750,70.776 216.400 C 71.028 218.050,71.407 219.460,71.617 219.533 C 71.828 219.607,72.001 220.237,72.002 220.933 C 72.004 221.630,72.250 222.669,72.549 223.242 C 72.848 223.815,73.315 225.210,73.586 226.342 C 73.858 227.474,74.242 228.400,74.440 228.400 C 74.638 228.400,74.800 228.906,74.800 229.524 C 74.800 230.141,75.064 230.996,75.387 231.424 C 75.710 231.851,75.980 232.447,75.987 232.750 C 76.007 233.612,78.069 238.000,78.455 238.000 C 78.645 238.000,78.800 238.312,78.800 238.694 C 78.800 239.318,80.691 243.505,81.196 244.000 C 81.308 244.110,81.940 245.278,82.600 246.597 C 83.260 247.915,84.025 249.233,84.300 249.525 C 84.575 249.818,84.800 250.197,84.800 250.367 C 84.800 250.538,85.160 251.093,85.600 251.600 C 86.040 252.107,86.400 252.765,86.400 253.061 C 86.400 253.358,86.551 253.600,86.736 253.600 C 86.920 253.600,87.280 254.057,87.534 254.615 C 88.037 255.719,88.614 256.492,89.700 257.517 C 90.085 257.880,90.400 258.331,90.400 258.519 C 90.400 258.994,93.720 263.200,94.095 263.200 C 94.263 263.200,94.400 263.393,94.400 263.629 C 94.400 263.864,94.625 264.294,94.900 264.583 C 95.175 264.873,96.210 266.057,97.200 267.215 C 100.523 271.103,107.928 278.277,111.840 281.400 C 112.666 282.060,113.671 282.915,114.071 283.300 C 114.472 283.685,114.952 284.000,115.138 284.000 C 116.775 284.000,116.800 284.377,116.800 308.731 C 116.800 329.494,116.867 332.000,117.421 332.000 C 118.101 332.000,121.038 330.495,121.909 329.701 C 122.210 329.426,122.893 329.091,123.428 328.957 C 123.963 328.823,124.400 328.553,124.400 328.357 C 124.400 328.160,124.657 328.000,124.971 328.000 C 125.286 328.000,125.789 327.775,126.089 327.500 C 126.389 327.225,127.437 326.579,128.418 326.063 C 135.155 322.523,136.400 321.816,136.400 321.526 C 136.400 321.347,136.697 321.200,137.061 321.200 C 137.594 321.200,141.541 319.162,144.800 317.203 C 145.130 317.005,146.210 316.399,147.200 315.856 C 148.190 315.312,149.810 314.413,150.800 313.858 C 151.790 313.302,153.500 312.384,154.600 311.816 C 157.546 310.297,159.305 309.269,159.568 308.912 C 160.143 308.129,162.658 307.615,164.014 308.004 C 164.774 308.222,165.970 308.400,166.674 308.400 C 167.377 308.400,168.058 308.570,168.186 308.777 C 168.314 308.984,169.269 309.263,170.309 309.396 C 171.349 309.529,173.246 309.912,174.524 310.247 C 175.803 310.581,178.503 310.957,180.524 311.081 C 182.546 311.206,184.453 311.509,184.761 311.754 C 185.550 312.380,214.450 312.380,215.239 311.754 C 215.547 311.509,217.430 311.207,219.423 311.085 C 221.415 310.962,224.115 310.595,225.423 310.269 C 226.730 309.943,228.651 309.559,229.691 309.415 C 230.731 309.271,231.686 308.984,231.814 308.777 C 231.942 308.570,232.646 308.400,233.379 308.400 C 234.578 308.400,240.587 306.875,242.600 306.059 C 243.040 305.881,244.930 305.242,246.800 304.639 C 250.374 303.487,250.425 303.468,254.148 301.832 C 255.440 301.264,256.745 300.800,257.048 300.800 C 257.352 300.800,257.600 300.628,257.600 300.418 C 257.600 300.208,258.244 299.915,259.032 299.768 C 259.819 299.620,260.559 299.252,260.675 298.949 C 260.791 298.647,261.213 298.400,261.614 298.400 C 262.015 298.400,262.586 298.157,262.882 297.860 C 263.179 297.564,264.092 297.100,264.911 296.829 C 265.730 296.559,266.400 296.172,266.400 295.969 C 266.400 295.766,266.749 295.600,267.176 295.600 C 267.603 295.600,268.066 295.417,268.204 295.194 C 268.342 294.971,269.027 294.516,269.727 294.183 C 271.530 293.327,272.867 292.528,273.154 292.136 C 273.411 291.785,274.633 291.040,276.500 290.097 C 277.105 289.791,277.600 289.375,277.600 289.171 C 277.600 288.967,277.802 288.800,278.049 288.800 C 278.451 288.800,283.102 285.667,284.260 284.617 C 284.512 284.388,285.396 283.660,286.223 283.000 C 287.050 282.340,288.141 281.440,288.646 281.000 C 289.152 280.560,290.415 279.480,291.451 278.600 C 294.674 275.865,303.356 266.966,305.109 264.600 C 305.272 264.380,306.350 263.004,307.503 261.543 C 308.656 260.082,309.600 258.777,309.600 258.643 C 309.600 258.509,309.915 258.070,310.300 257.666 C 310.685 257.262,311.270 256.521,311.600 256.020 C 311.930 255.518,312.515 254.695,312.900 254.191 C 313.285 253.686,313.600 253.176,313.600 253.057 C 313.600 252.938,314.155 252.017,314.834 251.011 C 316.410 248.676,318.248 245.421,319.075 243.500 C 319.431 242.675,319.855 242.000,320.017 242.000 C 320.180 242.000,320.437 241.506,320.589 240.902 C 320.741 240.297,321.570 238.379,322.432 236.638 C 323.295 234.897,324.006 233.187,324.013 232.837 C 324.020 232.486,324.290 231.851,324.613 231.424 C 324.936 230.996,325.200 230.141,325.200 229.524 C 325.200 228.906,325.367 228.400,325.571 228.400 C 325.776 228.400,326.164 227.410,326.435 226.200 C 326.706 224.990,327.068 224.000,327.239 224.000 C 327.411 224.000,327.675 223.145,327.826 222.100 C 327.977 221.055,328.251 220.010,328.435 219.778 C 328.618 219.546,328.974 218.016,329.226 216.378 C 329.478 214.740,329.840 213.207,330.032 212.970 C 330.224 212.734,330.500 211.204,330.645 209.570 C 330.790 207.937,331.109 206.347,331.354 206.038 C 331.665 205.647,331.800 200.663,331.800 189.600 C 331.800 178.537,331.665 173.553,331.354 173.161 C 331.109 172.853,330.790 171.263,330.645 169.630 C 330.500 167.996,330.209 166.452,329.999 166.199 C 329.788 165.945,329.444 164.524,329.234 163.041 C 329.024 161.559,328.685 160.133,328.481 159.873 C 328.276 159.613,327.987 158.599,327.837 157.620 C 327.687 156.641,327.416 155.651,327.235 155.420 C 327.053 155.189,326.683 154.055,326.412 152.900 C 326.142 151.745,325.781 150.800,325.611 150.800 C 325.441 150.800,325.187 150.080,325.046 149.200 C 324.906 148.320,324.613 147.600,324.395 147.600 C 324.178 147.600,324.000 147.245,324.000 146.812 C 324.000 145.873,322.048 141.458,321.549 141.267 C 321.357 141.193,321.200 140.825,321.200 140.448 C 321.200 139.825,320.664 138.712,317.188 132.113 C 316.583 130.965,315.528 129.264,314.844 128.334 C 314.160 127.404,313.600 126.408,313.600 126.121 C 313.600 125.835,313.414 125.600,313.187 125.600 C 312.960 125.600,312.641 125.285,312.477 124.900 C 311.893 123.520,310.314 121.200,309.960 121.200 C 309.762 121.200,309.600 120.924,309.600 120.587 C 309.600 120.251,309.330 119.871,309.000 119.745 C 308.670 119.618,308.400 119.339,308.400 119.124 C 308.400 117.264,291.625 100.223,285.046 95.400 C 284.146 94.740,283.122 93.930,282.771 93.600 C 282.419 93.270,281.721 92.730,281.220 92.400 C 280.718 92.070,279.895 91.485,279.391 91.100 C 278.886 90.715,278.272 90.400,278.024 90.400 C 277.777 90.400,277.476 90.141,277.354 89.824 C 277.233 89.508,276.623 89.137,276.000 89.000 C 275.377 88.863,274.767 88.492,274.646 88.176 C 274.524 87.859,274.248 87.600,274.033 87.600 C 273.817 87.600,272.866 87.088,271.920 86.462 C 270.974 85.835,269.390 84.896,268.400 84.374 C 267.410 83.852,266.330 83.217,266.000 82.963 C 265.670 82.709,264.725 82.284,263.900 82.020 C 263.075 81.755,262.400 81.372,262.400 81.169 C 262.400 80.966,262.062 80.800,261.649 80.800 C 261.236 80.800,260.692 80.552,260.441 80.250 C 260.190 79.947,259.133 79.463,258.092 79.173 C 257.052 78.883,255.962 78.411,255.671 78.123 C 255.381 77.835,254.924 77.600,254.656 77.600 C 254.388 77.600,253.463 77.240,252.600 76.800 C 251.737 76.360,250.619 76.000,250.115 76.000 C 249.612 76.000,249.200 75.828,249.200 75.618 C 249.200 75.408,248.525 75.111,247.700 74.958 C 246.875 74.805,245.840 74.454,245.400 74.178 C 244.960 73.902,243.790 73.548,242.800 73.389 C 241.810 73.231,240.895 72.938,240.768 72.737 C 240.640 72.536,239.830 72.271,238.968 72.148 C 238.105 72.024,236.860 71.693,236.200 71.411 C 235.540 71.130,233.927 70.781,232.615 70.636 C 231.304 70.491,230.134 70.218,230.015 70.028 C 229.897 69.838,228.540 69.553,227.000 69.393 C 225.460 69.233,223.995 68.939,223.745 68.740 C 223.494 68.540,220.614 68.181,217.345 67.942 C 214.075 67.703,211.229 67.348,211.020 67.154 C 210.524 66.692,189.476 66.692,188.980 67.154 M201.406 171.398 C 206.243 176.456,212.526 182.980,215.369 185.895 L 220.537 191.196 223.369 189.658 C 224.926 188.812,229.260 186.409,233.000 184.317 C 236.740 182.225,244.930 177.675,251.200 174.205 C 257.470 170.736,263.410 167.449,264.400 166.901 C 277.641 159.571,282.733 156.797,283.400 156.553 C 284.266 156.237,283.508 157.107,275.022 166.188 C 269.963 171.601,267.556 174.162,259.592 182.600 C 257.516 184.800,254.629 187.860,253.176 189.400 C 251.723 190.940,247.323 195.620,243.398 199.800 C 239.473 203.980,234.983 208.750,233.420 210.400 C 231.858 212.050,227.800 216.370,224.402 220.000 C 212.162 233.079,213.127 232.258,211.826 230.700 C 211.131 229.868,203.398 221.587,197.163 215.000 C 195.705 213.460,191.242 208.690,187.244 204.400 C 183.246 200.110,179.822 196.547,179.634 196.482 C 179.336 196.379,176.795 197.696,169.000 201.993 C 167.900 202.599,162.950 205.304,158.000 208.004 C 153.050 210.704,146.660 214.209,143.800 215.793 C 140.940 217.377,137.340 219.355,135.800 220.188 C 129.574 223.554,123.975 226.616,119.881 228.893 C 114.475 231.899,114.301 231.709,118.459 227.335 C 125.871 219.536,136.332 208.429,154.185 189.400 C 161.409 181.700,168.682 173.960,170.346 172.200 C 172.011 170.440,174.819 167.466,176.586 165.590 C 178.354 163.715,181.232 160.685,182.982 158.857 L 186.164 155.533 189.388 158.866 C 191.162 160.700,196.570 166.339,201.406 171.398 " stroke="none" fill="#1c8cec" fill-rule="evenodd"></path></g></svg>