<?xml version="1.0" standalone="no"?><svg xmlns="http://www.w3.org/2000/svg" viewBox="0 0 1440 320"><path fill="#182C61" fill-opacity="1" d="M0,192L24,202.7C48,213,96,235,144,250.7C192,267,240,277,288,256C336,235,384,181,432,181.3C480,181,528,235,576,245.3C624,256,672,224,720,213.3C768,203,816,213,864,213.3C912,213,960,203,1008,208C1056,213,1104,235,1152,229.3C1200,224,1248,192,1296,186.7C1344,181,1392,203,1416,213.3L1440,224L1440,0L1416,0C1392,0,1344,0,1296,0C1248,0,1200,0,1152,0C1104,0,1056,0,1008,0C960,0,912,0,864,0C816,0,768,0,720,0C672,0,624,0,576,0C528,0,480,0,432,0C384,0,336,0,288,0C240,0,192,0,144,0C96,0,48,0,24,0L0,0Z"></path></svg>